<?xml version="1.0" standalone="no"?>
<!DOCTYPE svg PUBLIC "-//W3C//DTD SVG 20010904//EN"
 "http://www.w3.org/TR/2001/REC-SVG-20010904/DTD/svg10.dtd">
<svg version="1.0" xmlns="http://www.w3.org/2000/svg"
 width="984.000000pt" height="984.000000pt" viewBox="0 0 984.000000 984.000000"
 preserveAspectRatio="xMidYMid meet">
<metadata>
Created by potrace 1.14, written by Peter Selinger 2001-2017
</metadata>
<g transform="translate(0.000000,984.000000) scale(0.100000,-0.100000)"
fill="#000000" stroke="none">
<path d="M4628 9835 c-2 -2 -34 -6 -73 -9 -132 -11 -163 -14 -300 -31 -16 -2
-43 -6 -60 -9 -16 -3 -52 -8 -80 -12 -48 -6 -58 -8 -107 -19 -13 -3 -36 -8
-53 -11 -25 -4 -125 -26 -220 -49 -11 -2 -54 -14 -95 -25 -41 -11 -84 -23 -95
-26 -30 -8 -39 -10 -55 -17 -8 -3 -46 -15 -85 -27 -38 -12 -77 -24 -85 -27 -8
-4 -17 -7 -20 -8 -3 -1 -14 -5 -25 -9 -175 -67 -211 -80 -217 -78 -5 1 -8 -3
-8 -8 0 -6 -6 -10 -14 -10 -25 0 -358 -157 -368 -174 -4 -6 -8 -8 -8 -4 0 8
-124 -57 -159 -84 -13 -10 -28 -18 -32 -18 -9 0 -270 -160 -279 -170 -3 -4
-34 -26 -70 -50 -109 -73 -332 -247 -420 -327 -19 -17 -46 -40 -60 -51 -76
-59 -430 -428 -430 -447 0 -6 1442 -1454 3205 -3218 1763 -1764 3205 -3211
3205 -3217 0 -5 -4 -10 -8 -10 -5 0 -17 -8 -28 -19 -11 -10 -41 -34 -66 -53
-25 -19 -52 -40 -59 -46 -53 -44 -314 -222 -325 -222 -3 0 -20 -11 -38 -25
-18 -14 -35 -25 -38 -25 -3 0 -45 -23 -93 -51 -99 -56 -406 -206 -440 -214 -5
-1 -21 -7 -35 -12 -106 -45 -157 -64 -205 -78 -31 -9 -68 -20 -83 -26 -15 -6
-29 -11 -32 -11 -3 0 -16 -5 -30 -10 -22 -8 -139 -40 -193 -53 -10 -2 -26 -6
-35 -9 -9 -3 -28 -7 -42 -10 -14 -3 -59 -12 -100 -21 -41 -9 -88 -18 -103 -20
-16 -2 -40 -6 -55 -9 -45 -9 -84 -15 -142 -22 -30 -3 -63 -8 -73 -10 -46 -8
-193 -18 -294 -18 -62 -1 -113 -5 -113 -10 0 -5 -6 -5 -12 0 -7 5 -95 9 -195
9 -101 0 -183 2 -183 5 0 3 -17 5 -38 6 -42 1 -164 13 -202 20 -14 3 -41 7
-60 9 -19 2 -51 7 -70 11 -19 3 -46 8 -60 10 -14 3 -33 7 -43 10 -10 3 -30 7
-46 9 -23 3 -106 23 -253 61 -10 2 -26 6 -35 8 -24 6 -184 55 -203 62 -8 3
-16 5 -17 5 -2 0 -23 8 -48 19 -25 11 -46 19 -48 19 -3 -1 -52 18 -97 35 -19
8 -44 18 -55 22 -11 4 -22 8 -25 9 -3 2 -15 6 -27 10 -13 4 -23 11 -23 16 0 5
-7 9 -15 9 -39 0 -557 278 -595 320 -3 3 -17 11 -32 19 -15 8 -36 21 -46 30
-10 9 -25 21 -34 26 -56 35 -168 120 -168 127 0 4 -5 8 -10 8 -6 0 -21 9 -33
20 -12 11 -56 48 -97 82 -138 115 -489 466 -490 491 0 4 -6 7 -13 7 -16 0
-507 -494 -507 -510 0 -14 44 -63 225 -244 189 -190 271 -266 284 -266 6 0 11
-4 11 -9 0 -8 190 -163 264 -216 16 -11 41 -30 56 -42 15 -13 31 -23 35 -23 4
0 20 -10 35 -22 31 -26 41 -33 130 -90 36 -23 84 -54 108 -70 24 -15 45 -28
47 -28 3 0 43 -23 89 -50 114 -67 480 -250 501 -250 3 0 24 -9 48 -19 66 -31
116 -50 197 -78 41 -14 81 -30 88 -36 6 -5 12 -7 12 -3 0 3 17 -1 38 -8 20 -8
78 -27 127 -42 94 -29 96 -30 134 -38 13 -3 47 -12 75 -20 28 -8 62 -16 76
-18 14 -2 31 -7 38 -12 7 -4 16 -6 19 -3 3 3 15 2 27 -3 13 -4 40 -11 62 -14
21 -4 57 -11 78 -17 21 -6 57 -12 80 -14 23 -1 48 -5 56 -8 8 -4 38 -9 65 -12
28 -3 64 -8 80 -10 17 -2 57 -6 90 -10 33 -3 89 -9 125 -13 151 -16 851 -7
960 13 14 2 45 7 70 9 90 10 144 18 150 21 3 2 29 6 59 10 59 7 63 8 134 24
26 6 64 14 85 17 20 3 44 7 52 10 8 3 26 8 38 10 13 3 49 12 80 20 32 8 64 17
72 19 54 12 332 99 390 122 8 3 20 7 25 8 11 3 216 87 285 117 93 41 339 164
430 216 98 56 117 68 235 144 39 25 74 45 79 46 5 0 12 4 15 9 11 15 80 63 90
63 6 0 11 3 11 8 0 4 21 21 45 37 25 17 45 33 45 38 0 4 6 7 14 7 8 0 16 3 18
8 2 4 32 29 68 56 36 28 72 56 80 63 22 18 61 52 122 103 66 56 358 345 427
423 28 31 51 62 51 67 0 9 -1881 1905 -1934 1949 -10 9 -26 24 -35 34 -9 10
-269 271 -579 580 -639 637 -723 722 -752 757 -25 30 -261 270 -266 270 -2 0
-14 10 -27 23 -13 12 -45 43 -73 69 -27 26 -656 655 -1398 1398 -772 773
-1345 1355 -1340 1359 40 38 280 217 360 269 10 7 33 21 49 32 17 10 35 24 42
29 7 6 16 11 21 11 4 0 17 8 28 18 10 10 24 19 29 21 10 3 133 72 165 92 8 5
40 21 70 35 30 15 58 31 61 36 3 5 8 9 10 8 2 -1 24 8 49 19 25 11 50 21 57
21 6 0 13 4 15 8 3 8 267 120 300 127 9 2 26 9 37 15 12 6 21 8 21 4 0 -3 6
-2 13 4 6 5 32 16 57 23 25 7 50 14 55 15 107 33 225 65 243 66 12 2 22 5 22
9 0 3 6 6 13 6 6 0 23 3 37 6 41 9 133 27 165 32 17 3 53 10 80 15 56 10 96
16 170 25 28 3 64 8 80 10 110 16 695 29 695 15 0 -3 30 -6 68 -6 37 -1 87 -4
112 -8 25 -3 65 -8 90 -11 61 -7 181 -26 250 -40 14 -3 39 -8 55 -10 78 -14
141 -29 153 -38 7 -5 15 -7 18 -5 4 5 42 -4 189 -46 6 -2 17 -5 25 -8 8 -3 67
-22 130 -43 63 -20 134 -46 157 -56 23 -10 44 -19 47 -19 2 0 17 -5 33 -12 15
-6 30 -12 33 -13 16 -6 69 -30 175 -80 66 -32 121 -56 121 -54 1 2 10 -3 20
-11 11 -8 33 -22 49 -31 154 -83 209 -116 370 -225 142 -96 185 -127 185 -136
0 -4 5 -8 11 -8 9 0 71 -46 125 -95 7 -5 36 -30 65 -55 59 -50 359 -347 432
-427 l46 -51 228 230 c125 127 238 240 251 251 27 25 22 46 -22 95 -65 73
-324 330 -395 392 -41 36 -91 80 -110 98 -20 18 -48 41 -63 50 -16 9 -28 20
-28 24 0 4 -4 8 -10 8 -5 0 -18 8 -28 18 -20 18 -36 31 -97 77 -97 73 -292
205 -304 205 -5 0 -11 4 -13 8 -1 4 -32 26 -68 47 -36 21 -66 43 -68 47 -2 4
-10 8 -19 8 -8 0 -27 8 -41 19 -69 48 -510 264 -552 269 -3 1 -32 13 -64 27
-33 14 -93 38 -135 52 -42 14 -82 30 -88 36 -7 5 -13 7 -13 3 0 -3 -17 0 -37
8 -90 33 -313 97 -384 110 -13 3 -24 5 -24 6 0 1 -9 3 -20 5 -11 3 -65 14
-120 25 -121 26 -127 27 -189 35 -27 3 -53 8 -57 10 -4 3 -29 7 -55 10 -27 2
-67 7 -89 10 -22 3 -69 7 -105 10 -36 3 -85 8 -110 11 -49 6 -677 14 -682 9z"/>
<path d="M6269 6775 c-667 -668 -1213 -1220 -1211 -1227 2 -7 36 -44 75 -81
130 -123 241 -234 327 -326 47 -50 90 -91 96 -91 6 0 431 420 946 933 514 512
946 941 959 953 l25 21 55 -75 c30 -41 62 -83 72 -93 9 -10 17 -21 17 -25 0
-3 18 -31 39 -63 22 -32 48 -73 59 -93 11 -19 26 -46 34 -59 7 -13 15 -26 18
-29 10 -10 114 -218 147 -295 77 -179 165 -448 199 -610 9 -44 27 -141 29
-165 2 -14 6 -36 9 -50 4 -14 8 -52 10 -85 2 -33 7 -71 10 -85 4 -14 8 -80 10
-147 3 -67 7 -127 11 -133 3 -5 2 -10 -3 -10 -4 0 -7 -19 -5 -42 5 -59 0 -199
-11 -278 -7 -51 -17 -140 -21 -175 -1 -16 -10 -70 -20 -120 -10 -49 -19 -99
-21 -110 -2 -11 -10 -45 -19 -75 -9 -30 -18 -66 -21 -80 -23 -117 -145 -431
-239 -615 -70 -138 -100 -189 -205 -353 l-53 -83 139 -140 c76 -78 152 -153
167 -168 16 -14 69 -65 118 -113 50 -49 93 -88 97 -88 4 1 23 25 42 55 19 30
38 55 43 55 4 0 7 6 7 13 0 7 8 22 18 33 9 10 33 44 52 74 19 30 38 57 42 58
5 2 8 8 8 12 0 5 24 49 53 97 102 168 303 604 328 711 1 4 13 39 26 77 26 77
72 236 80 275 2 13 12 60 23 105 10 44 22 103 26 130 4 28 9 52 9 55 1 3 5 28
9 55 4 28 10 64 13 80 20 116 28 267 27 530 0 315 -11 475 -48 670 -15 80 -20
111 -21 120 -1 6 -4 19 -8 30 -3 11 -8 37 -12 59 -3 21 -7 41 -10 45 -4 7 -8
27 -20 89 -3 15 -13 45 -21 67 -9 22 -15 41 -15 43 1 1 1 3 0 5 0 1 -2 10 -5
20 -2 9 -6 25 -8 35 -3 9 -5 17 -6 17 -1 0 -3 7 -5 15 -5 24 -81 230 -104 283
-11 26 -21 49 -21 52 -11 68 -295 592 -385 710 -9 11 -38 52 -65 90 -58 82
-48 69 -130 170 -35 44 -84 103 -109 130 -60 66 -317 322 -362 360 -19 17 -44
38 -55 47 -20 17 -50 -12 -1235 -1197z"/>
<path d="M1710 7290 c-19 -27 -38 -50 -42 -50 -5 0 -8 -4 -8 -9 0 -5 -31 -56
-70 -113 -38 -57 -70 -109 -70 -115 0 -7 -3 -13 -8 -13 -4 0 -19 -21 -32 -47
-14 -27 -28 -50 -31 -53 -3 -3 -12 -18 -21 -35 -81 -160 -139 -278 -156 -315
-25 -56 -73 -172 -76 -185 -2 -5 -8 -23 -15 -40 -7 -16 -28 -79 -48 -140 -19
-60 -37 -117 -41 -125 -3 -8 -6 -19 -8 -25 -26 -100 -57 -225 -60 -240 -12
-55 -26 -122 -29 -140 -13 -81 -17 -103 -21 -125 -3 -14 -7 -47 -10 -75 -2
-27 -7 -66 -9 -85 -16 -131 -20 -214 -20 -440 0 -253 6 -353 29 -518 3 -20 8
-55 11 -77 8 -73 16 -120 25 -160 44 -197 74 -323 81 -340 5 -15 52 -162 84
-265 1 -3 5 -14 10 -25 4 -11 17 -42 28 -70 10 -27 24 -61 30 -75 6 -14 11
-27 11 -30 7 -29 199 -412 227 -452 11 -14 19 -31 19 -37 0 -6 5 -11 10 -11 6
0 10 -5 10 -11 0 -13 165 -263 185 -279 8 -7 15 -18 15 -25 0 -8 3 -15 8 -17
4 -1 29 -32 57 -68 27 -36 54 -70 60 -76 5 -6 30 -35 55 -65 59 -71 406 -418
447 -447 l31 -22 251 250 c138 138 251 256 251 263 0 6 -21 27 -46 46 -43 32
-369 351 -360 351 3 0 -9 15 -26 33 -16 17 -49 57 -71 87 -23 30 -50 64 -59
74 -10 11 -18 23 -18 27 0 4 -6 14 -13 21 -24 24 -166 240 -168 255 -1 5 -10
19 -20 32 -11 13 -19 29 -19 37 0 7 -4 14 -9 16 -5 2 -41 71 -80 153 -39 83
-76 158 -81 167 -6 10 -10 26 -10 36 0 10 -4 22 -9 27 -7 9 -68 169 -75 200
-2 6 -6 24 -10 40 -4 17 -11 39 -16 50 -5 11 -18 58 -30 105 -30 122 -30 121
-35 164 -3 21 -7 41 -10 45 -4 7 -11 52 -20 131 -2 19 -6 46 -9 60 -12 57 -19
186 -19 355 -1 156 3 234 18 418 5 65 21 168 36 234 5 24 8 46 7 50 0 5 1 15
5 23 5 16 34 128 43 170 3 14 11 44 19 67 8 23 17 52 19 65 7 32 37 116 86
233 23 55 44 110 47 123 3 12 9 22 14 22 5 0 9 7 9 14 0 8 23 56 50 107 28 51
50 93 50 95 0 7 97 165 141 231 27 40 52 80 56 88 4 11 -73 94 -250 270 -141
140 -257 255 -259 255 -2 0 -19 -23 -38 -50z"/>
</g>
</svg>
