<svg id="svg" version="1.1" xmlns="http://www.w3.org/2000/svg" xmlns:xlink="http://www.w3.org/1999/xlink" width="400" height="400" viewBox="0, 0, 400,400"><g id="svgg"><path id="path0" d="M0.000 200.000 L 0.000 400.000 200.000 400.000 L 400.000 400.000 400.000 200.000 L 400.000 0.000 200.000 0.000 L 0.000 0.000 0.000 200.000 M206.290 29.332 C 210.629 29.521,215.742 29.907,218.417 30.248 C 219.425 30.377,221.075 30.566,222.083 30.669 C 223.092 30.772,224.442 30.958,225.083 31.082 C 225.725 31.207,226.887 31.395,227.667 31.500 C 228.446 31.605,229.608 31.793,230.250 31.917 C 230.892 32.041,231.904 32.231,232.500 32.339 C 233.096 32.447,233.996 32.635,234.500 32.757 C 235.004 32.878,235.904 33.067,236.500 33.175 C 237.096 33.284,238.183 33.524,238.917 33.708 C 239.650 33.893,240.512 34.101,240.833 34.170 C 241.154 34.239,242.317 34.537,243.417 34.833 C 244.517 35.129,245.679 35.428,246.000 35.498 C 246.321 35.567,247.071 35.781,247.667 35.973 C 248.262 36.164,249.650 36.593,250.750 36.924 C 252.881 37.566,253.750 37.855,256.000 38.670 C 256.779 38.952,257.829 39.324,258.333 39.497 C 259.873 40.027,261.555 40.661,262.109 40.920 C 262.397 41.056,262.679 41.167,262.735 41.167 C 262.791 41.167,263.155 41.307,263.543 41.478 C 263.932 41.649,264.775 41.995,265.417 42.246 C 266.058 42.498,266.979 42.883,267.463 43.102 C 267.947 43.321,268.371 43.500,268.407 43.500 C 268.442 43.500,269.421 43.950,270.583 44.500 C 271.745 45.050,272.730 45.500,272.772 45.500 C 273.128 45.500,283.816 51.107,285.167 52.002 C 285.304 52.093,285.567 52.239,285.750 52.327 C 286.179 52.531,287.631 53.414,290.281 55.083 C 291.445 55.817,292.477 56.454,292.574 56.500 C 292.671 56.546,293.079 56.808,293.481 57.083 C 293.882 57.358,294.496 57.771,294.844 58.000 C 295.192 58.229,295.950 58.751,296.530 59.160 C 297.109 59.569,298.033 60.203,298.583 60.569 C 299.133 60.936,299.621 61.280,299.667 61.334 C 299.712 61.388,300.012 61.613,300.333 61.833 C 300.654 62.054,300.954 62.278,301.000 62.331 C 301.046 62.384,301.496 62.723,302.000 63.083 C 302.504 63.444,302.954 63.784,303.000 63.840 C 303.046 63.896,303.683 64.384,304.417 64.926 C 305.602 65.802,307.109 66.998,308.333 68.034 C 308.563 68.228,309.125 68.684,309.583 69.047 C 310.388 69.685,311.547 70.680,313.491 72.404 C 318.267 76.638,329.148 87.756,329.163 88.417 C 329.165 88.509,325.197 92.553,320.346 97.404 L 311.526 106.223 311.055 105.658 C 310.795 105.347,310.200 104.678,309.732 104.171 C 309.263 103.665,308.631 102.950,308.328 102.583 C 307.285 101.325,299.250 93.306,297.501 91.778 C 296.539 90.938,295.561 90.063,295.328 89.833 C 294.804 89.318,292.545 87.448,291.515 86.677 C 291.094 86.362,290.637 85.992,290.500 85.855 C 290.362 85.717,289.200 84.827,287.917 83.877 C 286.633 82.926,285.471 82.057,285.333 81.945 C 284.490 81.258,278.302 77.089,277.000 76.330 C 276.679 76.144,276.214 75.861,275.966 75.704 C 275.718 75.546,274.893 75.049,274.133 74.600 C 273.372 74.151,272.393 73.570,271.956 73.308 C 271.519 73.047,271.120 72.833,271.070 72.833 C 271.019 72.833,270.364 72.471,269.614 72.029 C 268.400 71.313,261.958 68.085,260.000 67.211 C 259.587 67.027,258.912 66.726,258.500 66.541 C 258.087 66.356,256.887 65.856,255.833 65.428 C 254.779 65.001,253.767 64.589,253.583 64.512 C 253.400 64.435,252.725 64.171,252.083 63.924 C 251.442 63.678,250.692 63.375,250.417 63.252 C 250.142 63.128,249.467 62.882,248.917 62.705 C 248.367 62.529,246.979 62.072,245.833 61.691 C 242.872 60.706,242.493 60.588,240.167 59.923 C 235.347 58.545,232.255 57.814,226.750 56.753 C 225.650 56.541,224.150 56.282,223.417 56.179 C 222.683 56.075,221.408 55.884,220.583 55.754 C 217.297 55.235,214.033 54.881,210.583 54.670 C 202.822 54.193,201.292 54.140,197.917 54.230 C 191.449 54.401,183.845 55.028,179.500 55.748 C 178.721 55.877,177.446 56.068,176.667 56.173 C 175.887 56.277,174.762 56.463,174.167 56.586 C 173.571 56.709,172.596 56.894,172.000 56.997 C 171.404 57.101,170.653 57.254,170.331 57.337 C 170.009 57.421,169.034 57.634,168.165 57.809 C 166.716 58.102,165.477 58.400,162.750 59.110 C 162.200 59.254,161.563 59.427,161.333 59.495 C 161.104 59.564,160.467 59.752,159.917 59.913 C 159.367 60.074,158.729 60.263,158.500 60.333 C 158.271 60.403,157.633 60.594,157.083 60.757 C 156.533 60.919,155.446 61.271,154.667 61.537 C 153.887 61.803,152.500 62.271,151.583 62.577 C 150.667 62.883,149.692 63.225,149.417 63.337 C 149.142 63.450,148.767 63.603,148.583 63.679 C 148.400 63.754,147.688 64.039,147.000 64.312 C 146.313 64.585,144.981 65.113,144.042 65.486 C 143.102 65.859,142.202 66.234,142.042 66.319 C 141.437 66.640,139.166 67.667,139.060 67.667 C 138.951 67.667,132.151 71.036,131.667 71.330 C 131.193 71.618,129.081 72.798,127.924 73.421 C 127.286 73.764,125.874 74.598,124.786 75.273 C 123.698 75.948,122.773 76.500,122.730 76.500 C 122.688 76.500,122.562 76.577,122.451 76.670 C 122.341 76.764,121.500 77.326,120.583 77.920 C 119.667 78.514,118.804 79.072,118.667 79.162 C 117.869 79.681,112.330 83.687,111.656 84.233 C 111.512 84.349,110.950 84.772,110.406 85.173 C 109.862 85.574,109.291 86.018,109.137 86.160 C 108.984 86.302,108.293 86.868,107.602 87.417 C 106.911 87.967,106.343 88.475,106.339 88.547 C 106.336 88.618,127.390 109.747,153.125 135.500 C 178.860 161.253,200.143 182.569,200.420 182.870 C 200.696 183.171,201.521 183.947,202.253 184.596 C 205.583 187.548,207.126 189.009,210.010 191.940 C 211.711 193.669,213.551 195.608,214.097 196.250 C 215.292 197.653,216.597 199.089,217.167 199.628 C 219.545 201.876,329.167 311.557,329.167 311.687 C 329.167 312.614,317.457 324.430,311.500 329.514 C 309.696 331.054,309.651 331.091,308.891 331.698 C 308.510 332.001,307.422 332.871,306.474 333.629 C 305.526 334.388,304.412 335.266,304.000 335.580 C 301.480 337.501,300.396 338.312,299.701 338.794 C 298.365 339.719,297.806 340.109,296.083 341.315 C 294.210 342.626,288.324 346.358,286.169 347.601 C 285.390 348.050,284.603 348.507,284.419 348.618 C 284.234 348.728,283.929 348.890,283.741 348.976 C 283.553 349.063,282.841 349.463,282.158 349.865 C 280.860 350.630,272.919 354.636,271.333 355.325 C 270.142 355.843,267.665 356.979,267.294 357.178 C 267.135 357.264,266.931 357.333,266.840 357.333 C 266.750 357.333,266.280 357.512,265.796 357.731 C 265.312 357.950,264.392 358.337,263.750 358.590 C 263.108 358.844,262.184 359.232,261.695 359.453 C 261.206 359.675,260.381 359.995,259.862 360.164 C 259.342 360.334,258.054 360.786,257.000 361.168 C 255.946 361.551,254.858 361.931,254.583 362.013 C 254.308 362.095,253.933 362.229,253.750 362.312 C 253.567 362.394,253.079 362.553,252.667 362.665 C 252.254 362.776,251.617 362.963,251.250 363.079 C 250.883 363.195,250.246 363.383,249.833 363.496 C 249.421 363.609,248.896 363.778,248.667 363.872 C 248.438 363.966,248.025 364.104,247.750 364.179 C 247.475 364.253,246.987 364.386,246.667 364.473 C 246.346 364.560,245.033 364.901,243.750 365.232 C 242.467 365.562,241.154 365.902,240.833 365.986 C 239.323 366.385,238.166 366.659,237.250 366.836 C 236.700 366.943,235.800 367.132,235.250 367.257 C 233.347 367.691,231.912 367.982,230.750 368.170 C 230.108 368.275,228.983 368.461,228.250 368.586 C 224.775 369.174,222.296 369.522,219.333 369.836 C 218.371 369.938,216.990 370.092,216.265 370.178 C 209.562 370.970,190.200 370.968,183.833 370.175 C 183.146 370.090,181.796 369.936,180.833 369.834 C 177.623 369.495,174.932 369.123,171.750 368.579 C 171.017 368.453,169.854 368.264,169.167 368.157 C 168.479 368.051,167.680 367.893,167.392 367.808 C 167.103 367.722,166.503 367.587,166.058 367.507 C 164.872 367.294,161.521 366.571,160.750 366.363 C 159.513 366.028,155.921 365.122,155.333 364.997 C 154.598 364.840,153.166 364.439,152.083 364.087 C 151.625 363.938,150.162 363.485,148.833 363.081 C 146.319 362.316,144.156 361.599,143.583 361.341 C 143.129 361.136,141.381 360.514,140.667 360.304 C 140.160 360.154,138.948 359.686,137.708 359.159 C 136.844 358.792,135.711 358.329,134.250 357.744 C 133.128 357.295,131.179 356.444,128.738 355.337 C 127.645 354.842,119.158 350.607,118.540 350.249 C 117.812 349.827,113.867 347.579,113.445 347.345 C 112.651 346.905,112.478 346.799,110.029 345.250 C 105.964 342.679,105.510 342.387,105.125 342.106 C 104.919 341.956,104.075 341.364,103.250 340.791 C 102.425 340.217,101.563 339.617,101.333 339.456 C 101.104 339.295,100.617 338.965,100.250 338.723 C 99.883 338.481,99.546 338.238,99.500 338.181 C 99.454 338.125,98.779 337.607,98.000 337.030 C 97.221 336.453,96.466 335.885,96.323 335.768 C 96.179 335.652,95.617 335.230,95.073 334.831 C 94.528 334.433,94.046 334.064,94.000 334.012 C 93.905 333.903,92.854 333.045,90.917 331.492 C 90.183 330.904,89.508 330.342,89.417 330.243 C 89.325 330.144,88.763 329.658,88.167 329.163 C 87.571 328.668,86.596 327.803,86.000 327.240 C 85.404 326.677,83.942 325.315,82.750 324.213 C 80.313 321.958,76.257 317.840,74.250 315.583 C 73.517 314.758,72.787 313.986,72.628 313.868 C 72.265 313.596,70.833 311.847,70.833 311.674 C 70.833 311.532,88.318 294.000,88.459 294.000 C 88.586 294.000,89.214 294.681,90.917 296.664 C 92.888 298.960,100.877 306.947,103.417 309.162 C 104.517 310.121,105.458 310.964,105.508 311.034 C 105.559 311.104,106.053 311.519,106.608 311.956 C 108.433 313.394,110.082 314.730,110.167 314.839 C 110.212 314.898,110.942 315.445,111.787 316.054 C 112.632 316.663,113.457 317.272,113.620 317.407 C 113.783 317.543,114.442 318.030,115.083 318.491 C 115.725 318.952,116.325 319.389,116.417 319.462 C 117.069 319.981,122.498 323.500,122.647 323.500 C 122.749 323.500,122.833 323.558,122.833 323.628 C 122.833 323.699,123.265 324.003,123.792 324.304 C 124.319 324.605,125.087 325.071,125.500 325.339 C 125.912 325.607,126.400 325.904,126.583 325.998 C 126.914 326.168,127.823 326.678,129.750 327.776 C 130.955 328.462,138.413 332.196,140.167 332.991 C 142.618 334.102,143.432 334.455,144.583 334.907 C 145.225 335.159,145.900 335.428,146.083 335.505 C 148.264 336.416,149.683 336.953,151.750 337.652 C 152.850 338.024,154.087 338.451,154.500 338.601 C 154.912 338.751,155.475 338.935,155.750 339.008 C 156.025 339.082,157.112 339.405,158.167 339.727 C 160.268 340.367,162.205 340.903,163.750 341.273 C 164.870 341.541,166.374 341.934,167.500 342.252 C 167.912 342.368,168.813 342.556,169.500 342.668 C 170.188 342.780,171.162 342.969,171.667 343.089 C 175.592 344.020,182.587 344.953,190.333 345.578 C 194.706 345.932,205.403 345.933,209.667 345.581 C 215.722 345.081,216.321 345.016,221.333 344.323 C 223.415 344.035,226.495 343.499,228.500 343.076 C 229.096 342.950,230.033 342.764,230.583 342.662 C 231.133 342.560,231.996 342.375,232.500 342.251 C 234.874 341.666,238.526 340.728,239.250 340.517 C 242.228 339.648,246.245 338.373,248.750 337.502 C 250.077 337.040,250.547 336.866,251.917 336.330 C 252.100 336.258,252.775 335.996,253.417 335.747 C 254.058 335.498,254.733 335.233,254.917 335.158 C 256.174 334.646,256.733 334.403,258.708 333.515 C 259.098 333.339,259.979 332.946,260.666 332.640 C 262.239 331.939,268.113 329.015,269.333 328.325 C 269.837 328.039,270.550 327.635,270.917 327.426 C 271.283 327.217,272.033 326.801,272.583 326.501 C 273.133 326.202,273.702 325.854,273.846 325.729 C 273.991 325.603,274.153 325.500,274.207 325.500 C 274.354 325.500,278.694 322.784,280.558 321.525 C 281.461 320.915,282.586 320.163,283.058 319.854 C 284.002 319.235,286.368 317.497,286.500 317.325 C 286.546 317.266,286.855 317.037,287.187 316.817 C 287.927 316.326,289.719 314.981,289.833 314.830 C 289.879 314.770,290.220 314.502,290.590 314.235 C 290.961 313.968,291.847 313.267,292.559 312.677 L 293.854 311.604 182.315 200.065 L 70.775 88.525 71.763 87.316 C 74.113 84.438,83.383 75.128,86.750 72.264 C 87.483 71.640,88.196 71.006,88.333 70.855 C 88.471 70.704,89.596 69.757,90.833 68.751 C 92.071 67.745,93.233 66.783,93.417 66.612 C 93.600 66.441,94.087 66.070,94.500 65.787 C 94.912 65.504,95.287 65.223,95.333 65.163 C 95.379 65.103,95.763 64.798,96.186 64.485 C 96.609 64.173,97.832 63.258,98.904 62.452 C 99.976 61.647,101.655 60.449,102.635 59.791 C 103.615 59.133,104.454 58.554,104.500 58.504 C 104.568 58.431,105.705 57.671,107.000 56.834 C 107.138 56.745,107.513 56.501,107.833 56.292 C 109.724 55.058,113.947 52.505,115.833 51.455 C 116.337 51.175,116.975 50.813,117.250 50.651 C 118.699 49.797,126.167 46.002,128.418 44.976 C 129.150 44.642,130.350 44.090,131.083 43.750 C 131.817 43.410,132.717 43.020,133.083 42.884 C 133.450 42.747,133.900 42.573,134.083 42.496 C 134.267 42.419,134.717 42.231,135.083 42.078 C 135.450 41.925,135.900 41.736,136.083 41.658 C 137.992 40.849,139.991 40.078,141.667 39.505 C 143.706 38.808,145.101 38.314,145.417 38.179 C 145.764 38.029,146.832 37.675,147.833 37.378 C 150.731 36.516,151.505 36.282,152.083 36.094 C 152.450 35.974,153.087 35.783,153.500 35.668 C 153.912 35.553,154.587 35.364,155.000 35.247 C 155.412 35.130,156.125 34.948,156.583 34.844 C 157.042 34.739,157.792 34.547,158.250 34.418 C 159.362 34.104,162.340 33.406,163.583 33.168 C 164.133 33.063,165.033 32.876,165.583 32.753 C 167.570 32.309,170.272 31.814,172.417 31.500 C 173.150 31.393,174.313 31.206,175.000 31.084 C 175.688 30.963,177.037 30.780,178.000 30.677 C 178.963 30.574,180.612 30.381,181.667 30.250 C 188.752 29.363,198.591 28.997,206.290 29.332 M292.999 97.157 C 297.569 101.306,302.439 106.302,305.598 110.083 C 306.134 110.725,306.616 111.287,306.670 111.333 C 306.819 111.460,308.675 113.780,309.323 114.649 C 309.638 115.071,310.000 115.522,310.129 115.652 C 310.258 115.781,310.542 116.156,310.762 116.485 C 310.981 116.814,311.689 117.796,312.335 118.667 C 312.980 119.537,314.405 121.600,315.500 123.250 C 316.595 124.900,317.549 126.325,317.621 126.417 C 317.692 126.508,317.862 126.808,318.000 127.083 C 318.137 127.358,318.291 127.621,318.341 127.667 C 318.532 127.840,319.500 129.512,319.500 129.669 C 319.500 129.759,319.558 129.833,319.629 129.833 C 319.700 129.833,319.904 130.115,320.084 130.458 C 320.264 130.802,320.773 131.721,321.216 132.500 C 322.146 134.134,326.077 141.973,326.649 143.333 C 326.861 143.837,327.259 144.737,327.535 145.333 C 328.310 147.011,330.240 151.905,330.789 153.583 C 330.969 154.133,331.418 155.483,331.787 156.583 C 332.662 159.190,334.074 163.889,334.216 164.667 C 334.258 164.896,334.455 165.721,334.654 166.500 C 335.264 168.886,335.458 169.697,335.749 171.083 C 335.903 171.817,336.092 172.717,336.169 173.083 C 336.490 174.607,336.823 176.504,337.003 177.833 C 337.109 178.612,337.266 179.574,337.353 179.970 C 337.440 180.367,337.586 181.417,337.678 182.304 C 337.770 183.191,337.911 184.554,337.993 185.333 C 339.012 195.133,339.093 203.954,338.239 212.417 C 338.100 213.792,337.912 215.667,337.821 216.583 C 337.730 217.500,337.551 218.887,337.424 219.667 C 337.298 220.446,337.110 221.683,337.007 222.417 C 336.904 223.150,336.705 224.313,336.565 225.000 C 336.424 225.688,336.235 226.662,336.143 227.167 C 335.746 229.360,334.380 235.036,333.577 237.833 C 332.735 240.766,331.308 245.187,330.591 247.083 C 330.349 247.725,330.037 248.588,329.898 249.000 C 329.667 249.687,328.599 252.381,328.080 253.583 C 327.170 255.695,325.913 258.517,325.668 259.000 C 325.505 259.321,324.948 260.446,324.430 261.500 C 323.027 264.355,321.379 267.428,320.022 269.720 C 319.597 270.437,319.175 271.152,319.083 271.307 C 317.438 274.105,313.856 279.501,311.927 282.088 C 311.346 282.868,310.758 283.674,310.622 283.878 C 310.231 284.467,292.300 266.515,292.676 265.910 C 292.808 265.696,293.637 264.448,294.517 263.136 C 298.676 256.935,302.371 250.105,304.871 244.000 C 305.227 243.129,305.586 242.267,305.667 242.083 C 306.200 240.887,306.883 238.980,307.996 235.583 C 308.386 234.392,308.801 233.154,308.918 232.833 C 309.035 232.512,309.220 231.912,309.329 231.500 C 309.569 230.593,309.916 229.306,310.239 228.125 C 310.371 227.644,310.553 226.912,310.643 226.500 C 310.733 226.088,310.921 225.262,311.061 224.667 C 311.694 221.960,312.224 219.077,312.484 216.917 C 312.573 216.183,312.718 215.208,312.808 214.750 C 314.083 208.226,314.051 194.270,312.738 184.917 C 312.596 183.908,312.407 182.558,312.317 181.917 C 312.227 181.275,312.049 180.262,311.921 179.667 C 311.793 179.071,311.605 178.096,311.502 177.500 C 311.399 176.904,311.209 176.004,311.081 175.500 C 310.953 174.996,310.580 173.533,310.254 172.250 C 309.285 168.447,308.305 165.025,308.079 164.660 C 308.021 164.566,307.835 164.022,307.665 163.453 C 307.367 162.449,306.651 160.429,306.352 159.750 C 306.272 159.567,305.997 158.892,305.742 158.250 C 305.487 157.608,304.868 156.108,304.367 154.917 C 303.561 153.001,303.161 152.151,301.588 149.000 C 300.912 147.646,299.449 144.929,299.054 144.295 C 298.841 143.953,298.667 143.644,298.667 143.608 C 298.667 143.572,298.179 142.739,297.583 141.756 C 296.987 140.774,296.500 139.908,296.500 139.832 C 296.500 139.756,296.443 139.669,296.372 139.639 C 296.302 139.608,295.736 138.796,295.115 137.833 C 293.747 135.714,293.001 134.658,290.608 131.450 L 288.767 128.983 255.425 162.325 C 237.087 180.663,222.008 195.666,221.917 195.665 C 221.706 195.663,219.788 193.690,217.382 191.000 C 215.489 188.883,211.068 184.447,209.250 182.840 C 207.516 181.306,204.333 178.274,204.333 178.155 C 204.333 178.092,223.354 159.020,246.602 135.773 L 288.870 93.504 289.976 94.461 C 290.584 94.986,291.945 96.200,292.999 97.157 M105.954 136.397 C 103.076 140.727,102.224 142.111,100.199 145.750 C 99.726 146.600,96.327 153.473,96.160 153.917 C 96.091 154.100,95.794 154.775,95.500 155.417 C 95.206 156.058,94.907 156.733,94.836 156.917 C 94.512 157.752,94.116 158.779,94.000 159.083 C 93.930 159.267,93.757 159.717,93.616 160.083 C 93.116 161.378,91.803 165.128,91.544 166.000 C 90.932 168.065,90.453 169.695,90.247 170.417 C 90.021 171.207,89.312 174.144,89.000 175.583 C 88.920 175.950,88.741 176.775,88.602 177.417 C 88.050 179.960,87.080 186.050,86.916 188.000 C 86.282 195.571,86.120 199.865,86.329 203.542 C 86.691 209.877,86.990 213.474,87.326 215.500 C 87.424 216.096,87.622 217.296,87.765 218.167 C 88.071 220.030,88.281 221.183,88.583 222.667 C 88.705 223.262,88.894 224.200,89.005 224.750 C 89.115 225.300,89.302 226.088,89.422 226.500 C 89.542 226.912,89.729 227.662,89.838 228.167 C 89.948 228.671,90.132 229.383,90.247 229.750 C 90.362 230.117,90.541 230.717,90.644 231.083 C 91.295 233.396,91.841 235.210,91.927 235.350 C 91.982 235.439,92.165 235.978,92.335 236.547 C 92.649 237.605,93.378 239.650,93.655 240.250 C 93.740 240.433,94.046 241.218,94.337 241.993 C 94.627 242.768,95.017 243.743,95.204 244.160 C 95.391 244.576,95.692 245.254,95.873 245.667 C 97.394 249.123,99.745 253.759,101.563 256.885 C 103.114 259.553,103.241 259.760,104.417 261.561 C 105.668 263.476,108.969 268.196,109.154 268.333 C 109.216 268.379,109.448 268.679,109.669 269.000 C 110.119 269.651,111.986 272.037,112.147 272.167 C 112.204 272.212,112.848 272.962,113.579 273.833 C 114.311 274.704,115.402 275.942,116.005 276.583 C 116.608 277.225,117.660 278.350,118.343 279.083 C 119.025 279.817,120.147 280.942,120.835 281.583 C 121.523 282.225,122.761 283.379,123.585 284.148 C 124.409 284.917,125.927 286.260,126.958 287.133 C 127.990 288.006,128.833 288.765,128.833 288.819 C 128.833 288.873,124.864 292.886,120.013 297.737 L 111.193 306.556 110.770 306.278 C 110.537 306.126,109.875 305.568,109.298 305.040 C 108.722 304.511,107.653 303.554,106.923 302.914 C 103.846 300.215,96.931 293.078,94.275 289.860 C 93.923 289.433,93.349 288.746,93.002 288.333 C 92.457 287.687,91.100 285.989,89.740 284.250 C 89.306 283.696,88.748 282.926,88.046 281.917 C 87.792 281.550,87.460 281.113,87.310 280.946 C 87.160 280.780,86.299 279.542,85.398 278.196 C 84.496 276.851,83.719 275.712,83.670 275.667 C 83.516 275.523,82.667 274.179,82.667 274.079 C 82.667 274.027,82.367 273.532,82.000 272.980 C 81.633 272.428,81.333 271.950,81.333 271.918 C 81.333 271.886,80.970 271.273,80.525 270.555 C 80.081 269.837,79.413 268.688,79.042 268.000 C 78.670 267.313,78.090 266.262,77.751 265.667 C 77.207 264.710,74.174 258.573,73.592 257.250 C 73.471 256.975,73.138 256.240,72.852 255.618 C 72.567 254.995,72.333 254.450,72.333 254.407 C 72.333 254.365,72.191 254.012,72.016 253.623 C 71.492 252.453,69.557 247.487,69.209 246.417 C 69.030 245.867,68.573 244.479,68.192 243.333 C 67.542 241.375,67.177 240.202,66.789 238.833 C 66.698 238.512,66.566 238.093,66.494 237.902 C 66.423 237.710,66.055 236.285,65.677 234.735 C 65.298 233.185,64.884 231.504,64.756 231.000 C 64.628 230.496,64.437 229.633,64.332 229.083 C 64.226 228.533,64.042 227.671,63.922 227.167 C 63.803 226.662,63.617 225.688,63.509 225.000 C 63.402 224.313,63.212 223.188,63.088 222.500 C 62.964 221.813,62.782 220.612,62.685 219.833 C 62.587 219.054,62.396 217.554,62.259 216.500 C 61.215 208.468,60.891 190.416,61.750 188.138 C 61.796 188.016,61.905 187.092,61.992 186.083 C 62.131 184.463,62.355 182.631,62.829 179.250 C 63.022 177.874,63.608 174.510,63.918 173.000 C 64.060 172.313,64.244 171.412,64.328 171.000 C 64.455 170.377,64.729 169.197,65.432 166.250 C 65.476 166.067,65.705 165.204,65.942 164.333 C 66.179 163.462,66.545 162.112,66.756 161.333 C 66.967 160.554,67.379 159.204,67.673 158.333 C 67.966 157.462,68.341 156.300,68.507 155.750 C 68.896 154.462,69.613 152.499,69.830 152.127 C 69.924 151.968,70.000 151.754,70.000 151.652 C 70.000 151.550,70.104 151.231,70.230 150.942 C 70.357 150.653,70.773 149.629,71.155 148.667 C 71.971 146.612,72.001 146.541,72.566 145.287 C 72.805 144.758,73.000 144.279,73.000 144.224 C 73.000 143.877,77.317 135.205,78.594 132.988 C 79.152 132.018,79.659 131.118,79.720 130.988 C 79.781 130.857,79.906 130.637,79.998 130.500 C 80.090 130.362,80.637 129.462,81.214 128.500 C 83.167 125.243,87.318 118.994,87.947 118.363 C 88.068 118.242,88.167 118.084,88.167 118.012 C 88.167 117.941,88.344 117.691,88.561 117.457 C 88.777 117.223,89.126 116.792,89.334 116.498 L 89.714 115.965 98.672 124.922 L 107.629 133.878 105.954 136.397 " stroke="none" fill="#fcfcfc" fill-rule="evenodd"></path><path id="path1" d="M190.333 29.523 C 182.642 30.066,176.283 30.805,171.779 31.677 C 171.337 31.763,170.779 31.833,170.540 31.833 C 170.300 31.833,169.650 31.940,169.094 32.071 C 168.538 32.202,167.483 32.426,166.750 32.568 C 163.507 33.200,161.254 33.694,159.405 34.178 C 158.311 34.465,156.929 34.816,156.333 34.958 C 154.095 35.491,147.071 37.630,144.417 38.586 C 143.225 39.016,141.837 39.502,141.333 39.667 C 140.504 39.938,140.138 40.076,139.083 40.513 C 138.900 40.589,137.512 41.146,136.000 41.750 C 133.000 42.949,133.034 42.935,131.583 43.595 C 131.033 43.845,130.133 44.254,129.583 44.502 C 129.033 44.751,128.208 45.124,127.750 45.332 C 125.680 46.271,118.500 49.952,117.466 50.605 C 117.109 50.830,116.652 51.089,116.450 51.181 C 116.248 51.273,115.933 51.438,115.750 51.549 C 115.567 51.659,114.967 52.004,114.417 52.315 C 112.680 53.296,105.820 57.636,104.083 58.851 C 103.167 59.493,102.117 60.214,101.750 60.453 C 100.851 61.039,98.708 62.618,97.097 63.882 C 96.371 64.451,95.461 65.142,95.075 65.417 C 94.463 65.853,93.335 66.739,92.247 67.639 C 92.063 67.792,91.500 68.253,90.997 68.664 C 86.955 71.970,80.359 78.118,76.885 81.819 C 73.774 85.131,71.558 87.548,71.121 88.103 L 70.783 88.533 182.313 200.063 L 293.842 311.592 293.296 312.104 C 292.747 312.619,290.685 314.297,289.841 314.917 C 289.591 315.100,289.131 315.452,288.818 315.698 C 286.806 317.286,283.703 319.488,280.333 321.722 C 277.425 323.649,276.863 324.000,276.684 324.000 C 276.598 324.000,276.503 324.056,276.472 324.125 C 276.409 324.267,275.236 325.003,273.167 326.199 C 272.387 326.649,271.637 327.084,271.500 327.166 C 271.362 327.248,270.912 327.501,270.500 327.727 C 270.087 327.953,269.412 328.327,269.000 328.558 C 267.093 329.624,260.204 332.972,258.833 333.498 C 258.512 333.622,258.175 333.776,258.083 333.842 C 257.992 333.908,257.317 334.203,256.583 334.498 C 255.850 334.793,254.987 335.144,254.667 335.278 C 252.718 336.094,251.607 336.539,251.167 336.680 C 250.938 336.753,249.887 337.121,248.833 337.497 C 247.109 338.112,245.314 338.717,243.167 339.407 C 242.500 339.622,239.749 340.417,237.417 341.069 C 236.958 341.197,236.171 341.394,235.667 341.506 C 235.162 341.618,234.412 341.808,234.000 341.927 C 233.588 342.047,232.800 342.230,232.250 342.335 C 231.124 342.551,229.368 342.927,228.000 343.247 C 227.496 343.365,226.521 343.550,225.833 343.658 C 225.146 343.765,223.983 343.955,223.250 344.080 C 214.625 345.546,201.472 346.342,194.167 345.839 C 192.563 345.729,190.200 345.573,188.917 345.494 C 185.101 345.256,180.650 344.734,176.917 344.084 C 176.183 343.956,174.983 343.765,174.250 343.659 C 173.517 343.552,172.504 343.367,172.000 343.247 C 171.496 343.127,170.483 342.901,169.750 342.745 C 167.988 342.369,161.697 340.852,161.167 340.674 C 160.938 340.597,160.300 340.407,159.750 340.251 C 157.662 339.660,155.868 339.108,154.500 338.635 C 153.721 338.365,152.317 337.887,151.380 337.571 C 149.818 337.045,149.376 336.883,148.417 336.488 C 148.233 336.412,147.296 336.039,146.333 335.660 C 145.371 335.280,144.347 334.863,144.058 334.735 C 143.769 334.606,143.494 334.500,143.445 334.500 C 143.370 334.500,142.009 333.898,140.250 333.087 C 139.975 332.960,137.912 331.952,135.667 330.847 C 131.824 328.957,130.330 328.181,128.750 327.260 C 128.149 326.909,126.972 326.250,126.083 325.765 C 125.900 325.665,125.712 325.538,125.667 325.482 C 125.621 325.426,125.358 325.255,125.083 325.102 C 124.808 324.948,124.358 324.678,124.083 324.500 C 123.808 324.322,123.292 324.005,122.936 323.796 C 121.879 323.177,121.830 323.145,119.523 321.583 C 118.304 320.758,117.065 319.933,116.771 319.750 C 115.587 319.013,108.532 313.641,106.917 312.247 C 106.458 311.851,105.694 311.202,105.218 310.805 C 102.044 308.156,94.918 301.248,92.383 298.361 C 91.766 297.658,90.844 296.633,90.336 296.083 C 89.827 295.533,89.200 294.827,88.942 294.514 L 88.474 293.944 79.654 302.763 C 74.803 307.614,70.833 311.636,70.833 311.702 C 70.833 311.768,71.040 312.034,71.292 312.292 C 71.544 312.551,72.550 313.660,73.528 314.756 C 75.288 316.730,83.810 325.264,85.417 326.662 C 85.875 327.061,86.625 327.733,87.083 328.157 C 88.501 329.466,94.016 333.997,95.917 335.414 C 96.283 335.687,96.696 336.002,96.833 336.114 C 96.971 336.226,97.721 336.785,98.500 337.356 C 99.279 337.927,99.954 338.436,100.000 338.488 C 100.046 338.541,100.431 338.820,100.857 339.109 C 101.282 339.397,102.205 340.035,102.907 340.525 C 103.609 341.016,104.452 341.577,104.779 341.774 C 105.107 341.970,105.422 342.197,105.479 342.279 C 105.536 342.361,105.996 342.682,106.500 342.992 C 107.004 343.303,107.920 343.881,108.536 344.278 C 109.152 344.675,109.692 345.000,109.736 345.000 C 109.780 345.000,110.176 345.244,110.616 345.542 C 111.455 346.110,113.172 347.167,113.257 347.167 C 113.284 347.167,114.068 347.617,115.000 348.167 C 115.932 348.717,116.757 349.167,116.835 349.167 C 116.913 349.167,117.079 349.260,117.204 349.375 C 117.643 349.776,124.437 353.311,127.000 354.471 C 127.596 354.741,128.683 355.239,129.417 355.579 C 131.924 356.742,132.418 356.963,133.333 357.335 C 134.217 357.693,135.051 358.036,135.750 358.329 C 137.109 358.897,139.546 359.857,140.167 360.067 C 140.883 360.310,142.088 360.742,144.833 361.737 C 145.521 361.987,146.458 362.305,146.917 362.445 C 147.375 362.585,148.050 362.795,148.417 362.912 C 148.783 363.028,149.421 363.216,149.833 363.329 C 150.246 363.442,150.771 363.612,151.000 363.706 C 151.229 363.800,151.679 363.946,152.000 364.031 C 152.321 364.116,152.808 364.248,153.083 364.325 C 154.264 364.655,157.664 365.549,158.583 365.771 C 159.133 365.904,159.996 366.118,160.500 366.248 C 161.762 366.572,163.391 366.940,164.583 367.168 C 165.133 367.274,165.996 367.459,166.500 367.579 C 167.659 367.856,169.934 368.254,173.667 368.833 C 174.354 368.940,175.554 369.130,176.333 369.256 C 177.112 369.381,178.650 369.568,179.750 369.670 C 180.850 369.772,182.237 369.932,182.833 370.025 C 189.181 371.018,209.913 371.017,217.250 370.024 C 217.983 369.925,219.371 369.764,220.333 369.666 C 222.348 369.462,225.212 369.048,229.083 368.402 C 231.690 367.967,232.558 367.804,233.500 367.575 C 234.004 367.452,235.017 367.237,235.750 367.097 C 237.798 366.706,239.070 366.413,241.250 365.829 C 242.350 365.535,243.438 365.257,243.667 365.212 C 244.371 365.074,248.183 364.000,249.417 363.593 C 250.058 363.381,251.033 363.078,251.583 362.920 C 252.715 362.596,254.915 361.876,255.417 361.666 C 255.600 361.590,256.650 361.216,257.750 360.837 C 259.442 360.252,262.179 359.207,263.417 358.672 C 263.600 358.593,264.800 358.101,266.083 357.578 C 267.367 357.055,268.492 356.573,268.583 356.507 C 268.675 356.440,269.050 356.269,269.417 356.126 C 270.796 355.589,274.981 353.565,279.667 351.169 C 280.446 350.771,282.224 349.782,283.619 348.972 C 285.014 348.163,286.233 347.500,286.327 347.500 C 286.422 347.500,286.500 347.441,286.500 347.370 C 286.500 347.298,286.706 347.151,286.958 347.042 C 287.518 346.801,288.245 346.374,288.943 345.875 C 289.232 345.669,289.516 345.500,289.574 345.500 C 289.633 345.500,289.771 345.424,289.882 345.331 C 290.139 345.115,290.859 344.652,292.820 343.438 C 293.683 342.904,294.485 342.381,294.601 342.275 C 294.718 342.170,295.532 341.596,296.411 341.000 C 299.123 339.162,302.532 336.700,303.489 335.890 C 303.633 335.768,303.983 335.500,304.268 335.293 C 305.876 334.126,307.148 333.142,307.196 333.030 C 307.226 332.959,307.588 332.642,308.002 332.326 C 309.195 331.412,311.365 329.622,311.831 329.167 C 312.066 328.938,313.126 327.987,314.187 327.054 C 316.692 324.852,324.877 316.665,327.054 314.183 C 327.987 313.120,328.844 312.151,328.958 312.030 C 329.073 311.909,329.167 311.758,329.167 311.694 C 329.167 311.631,303.699 286.117,272.571 254.998 C 241.443 223.878,215.513 197.892,214.948 197.250 C 212.133 194.050,205.775 187.701,202.750 185.068 C 202.108 184.509,180.107 162.563,153.858 136.298 L 106.133 88.545 108.608 86.562 C 110.870 84.751,113.351 82.863,114.831 81.828 C 115.151 81.604,115.526 81.322,115.664 81.200 C 115.803 81.079,116.179 80.810,116.500 80.604 C 116.821 80.397,117.908 79.662,118.917 78.971 C 120.623 77.801,124.780 75.167,124.921 75.167 C 124.955 75.167,125.306 74.950,125.700 74.685 C 126.444 74.185,126.885 73.930,128.787 72.898 C 129.408 72.561,129.992 72.232,130.083 72.167 C 130.663 71.755,136.449 68.804,138.667 67.789 C 139.724 67.304,142.403 66.116,143.500 65.644 C 143.912 65.467,144.380 65.249,144.539 65.161 C 144.699 65.072,144.943 65.000,145.083 65.000 C 145.223 65.000,145.468 64.929,145.627 64.841 C 146.332 64.455,149.382 63.292,152.250 62.316 C 152.800 62.129,153.400 61.911,153.583 61.830 C 153.767 61.750,154.554 61.490,155.333 61.253 C 156.112 61.016,156.975 60.743,157.250 60.646 C 157.525 60.550,157.994 60.402,158.292 60.319 C 158.590 60.235,159.077 60.097,159.375 60.011 C 161.326 59.452,163.851 58.772,164.417 58.654 C 164.783 58.577,165.496 58.400,166.000 58.259 C 166.504 58.119,167.517 57.887,168.250 57.745 C 168.983 57.602,169.875 57.407,170.232 57.312 C 170.589 57.217,171.226 57.078,171.649 57.004 C 172.071 56.929,173.092 56.742,173.917 56.588 C 176.485 56.107,180.929 55.457,183.583 55.174 C 191.869 54.291,198.323 54.031,204.952 54.313 C 209.662 54.513,213.990 54.842,216.199 55.169 C 216.812 55.259,217.622 55.333,217.997 55.333 C 218.373 55.333,219.221 55.438,219.882 55.566 C 220.543 55.693,221.758 55.888,222.583 55.998 C 223.408 56.108,224.646 56.306,225.333 56.437 C 227.797 56.908,228.432 57.032,229.500 57.250 C 230.096 57.372,231.033 57.561,231.583 57.671 C 232.133 57.781,232.921 57.968,233.333 58.085 C 233.746 58.203,234.458 58.386,234.917 58.493 C 236.887 58.951,240.784 60.003,242.500 60.540 C 245.957 61.622,251.079 63.403,252.417 63.988 C 252.600 64.069,253.275 64.339,253.917 64.589 C 255.742 65.301,256.399 65.574,257.833 66.218 C 258.337 66.444,259.125 66.794,259.583 66.996 C 263.125 68.559,268.344 71.191,271.196 72.852 C 271.808 73.208,272.389 73.500,272.487 73.500 C 272.586 73.500,272.667 73.559,272.667 73.630 C 272.667 73.702,272.873 73.849,273.125 73.958 C 273.644 74.181,274.163 74.486,275.545 75.379 C 276.074 75.720,276.546 76.000,276.593 76.000 C 276.641 76.000,276.883 76.141,277.132 76.314 C 277.380 76.486,278.258 77.073,279.083 77.617 C 281.962 79.515,285.085 81.667,286.189 82.513 C 286.498 82.749,287.350 83.382,288.083 83.921 C 288.817 84.459,289.454 84.948,289.500 85.006 C 289.546 85.065,289.929 85.368,290.351 85.681 C 291.336 86.410,293.533 88.181,293.750 88.420 C 293.842 88.521,294.404 89.011,295.000 89.508 C 299.190 93.007,306.364 100.165,310.750 105.225 L 311.583 106.186 320.403 97.356 C 330.383 87.365,329.479 88.579,328.058 87.069 C 327.705 86.694,326.745 85.644,325.925 84.735 C 323.765 82.343,319.232 77.758,316.917 75.622 C 312.648 71.683,310.441 69.739,308.833 68.500 C 308.421 68.182,307.979 67.821,307.851 67.699 C 307.252 67.124,300.927 62.276,299.500 61.297 C 299.271 61.140,298.746 60.773,298.333 60.481 C 295.062 58.171,289.426 54.500,289.151 54.500 C 289.068 54.500,289.000 54.439,289.000 54.364 C 289.000 54.290,288.756 54.101,288.458 53.946 C 288.160 53.790,287.692 53.515,287.417 53.334 C 287.142 53.153,286.767 52.938,286.583 52.855 C 286.400 52.773,285.387 52.200,284.333 51.583 C 281.608 49.986,274.571 46.332,272.073 45.215 C 271.051 44.758,269.186 43.917,268.083 43.416 C 267.625 43.207,266.837 42.871,266.333 42.668 C 265.829 42.465,265.267 42.239,265.083 42.165 C 264.900 42.091,263.914 41.688,262.893 41.271 C 261.014 40.502,260.326 40.241,258.667 39.668 C 258.162 39.494,257.112 39.116,256.333 38.827 C 255.554 38.538,254.692 38.235,254.417 38.153 C 254.142 38.072,253.767 37.937,253.583 37.855 C 253.400 37.772,252.950 37.621,252.583 37.519 C 252.217 37.416,251.326 37.145,250.604 36.916 C 249.882 36.687,249.190 36.500,249.068 36.500 C 248.945 36.500,248.598 36.395,248.297 36.266 C 247.996 36.137,247.450 35.952,247.083 35.854 C 243.956 35.018,241.433 34.360,240.583 34.159 C 240.125 34.050,239.375 33.862,238.917 33.741 C 238.458 33.620,237.633 33.435,237.083 33.330 C 236.533 33.225,235.596 33.032,235.000 32.901 C 233.141 32.492,229.809 31.870,228.417 31.671 C 227.683 31.567,226.483 31.376,225.750 31.247 C 223.954 30.931,221.145 30.554,218.917 30.330 C 217.908 30.229,216.446 30.073,215.667 29.985 C 211.123 29.468,195.212 29.178,190.333 29.523 M246.526 135.890 L 204.303 178.114 208.467 182.052 C 210.756 184.217,214.082 187.509,215.857 189.366 C 217.631 191.222,219.738 193.419,220.538 194.246 L 221.993 195.750 255.393 162.354 L 288.792 128.958 289.521 129.916 C 289.922 130.442,290.490 131.214,290.784 131.630 C 291.077 132.047,291.385 132.431,291.467 132.485 C 291.550 132.539,291.815 132.883,292.058 133.250 C 292.301 133.617,292.698 134.217,292.942 134.583 C 293.185 134.950,293.434 135.287,293.494 135.333 C 293.555 135.379,294.265 136.429,295.071 137.667 C 295.878 138.904,296.679 140.120,296.852 140.368 C 297.025 140.617,297.167 140.864,297.167 140.918 C 297.167 140.972,297.429 141.426,297.750 141.928 C 298.071 142.429,298.333 142.889,298.333 142.948 C 298.333 143.008,298.439 143.175,298.567 143.320 C 298.963 143.765,303.833 153.222,303.833 153.545 C 303.833 153.607,304.014 154.053,304.234 154.537 C 304.454 155.021,304.829 155.843,305.067 156.365 C 305.305 156.886,305.500 157.362,305.500 157.423 C 305.500 157.483,305.606 157.769,305.735 158.058 C 305.864 158.347,306.245 159.333,306.582 160.250 C 306.919 161.167,307.295 162.179,307.419 162.500 C 307.811 163.518,308.944 167.162,309.518 169.250 C 309.619 169.617,309.797 170.217,309.914 170.583 C 310.031 170.950,310.219 171.700,310.332 172.250 C 310.445 172.800,310.635 173.588,310.754 174.000 C 311.213 175.588,312.173 180.450,312.483 182.750 C 312.582 183.483,312.771 184.871,312.903 185.833 C 314.075 194.393,314.083 206.454,312.922 214.333 C 312.259 218.829,311.484 223.338,311.187 224.424 C 311.088 224.787,310.788 225.983,310.520 227.083 C 309.644 230.682,309.379 231.601,307.977 235.917 C 307.709 236.742,307.422 237.567,307.340 237.750 C 307.257 237.933,307.104 238.383,307.000 238.750 C 306.896 239.117,306.744 239.567,306.664 239.750 C 306.583 239.933,306.203 240.871,305.820 241.833 C 305.436 242.796,304.983 243.902,304.811 244.292 C 304.640 244.681,304.343 245.356,304.152 245.792 C 303.960 246.227,303.740 246.733,303.663 246.917 C 303.425 247.484,300.566 253.192,299.975 254.279 C 299.472 255.206,298.598 256.730,297.795 258.083 C 297.632 258.358,297.372 258.827,297.218 259.125 C 297.064 259.423,296.877 259.667,296.802 259.667 C 296.728 259.667,296.667 259.753,296.667 259.859 C 296.667 259.965,296.479 260.298,296.250 260.598 C 296.021 260.899,295.833 261.194,295.833 261.255 C 295.833 261.316,295.665 261.600,295.458 261.887 C 295.252 262.175,295.008 262.536,294.917 262.691 C 294.495 263.403,293.078 265.455,292.771 265.798 L 292.430 266.179 301.387 275.131 L 310.344 284.083 310.678 283.667 C 312.388 281.532,316.592 275.348,318.886 271.593 C 318.994 271.415,319.327 270.875,319.625 270.393 C 319.923 269.911,320.167 269.483,320.167 269.443 C 320.167 269.380,321.386 267.190,321.915 266.301 C 322.591 265.167,326.903 256.318,327.503 254.833 C 327.707 254.329,328.015 253.599,328.187 253.210 C 328.359 252.822,328.500 252.458,328.500 252.402 C 328.500 252.346,328.612 252.045,328.750 251.734 C 329.324 250.433,329.508 249.957,330.457 247.333 C 331.004 245.821,331.769 243.571,332.156 242.333 C 332.544 241.096,332.923 239.896,332.999 239.667 C 333.076 239.438,333.338 238.500,333.582 237.583 C 333.827 236.667,334.129 235.579,334.254 235.167 C 334.380 234.754,334.679 233.554,334.919 232.500 C 335.159 231.446,335.455 230.171,335.577 229.667 C 335.699 229.162,335.887 228.262,335.995 227.667 C 336.102 227.071,336.294 226.096,336.421 225.500 C 336.548 224.904,336.735 223.854,336.838 223.167 C 336.941 222.479,337.126 221.279,337.249 220.500 C 337.373 219.721,337.558 218.333,337.661 217.417 C 337.765 216.500,337.954 214.850,338.083 213.750 C 338.801 207.602,338.802 192.392,338.085 186.500 C 337.956 185.446,337.767 183.758,337.664 182.750 C 337.561 181.742,337.377 180.392,337.254 179.750 C 337.132 179.108,336.945 177.908,336.839 177.083 C 336.733 176.258,336.542 175.133,336.416 174.583 C 336.290 174.033,336.114 173.208,336.025 172.750 C 335.592 170.514,335.256 168.972,334.955 167.833 C 334.773 167.146,334.568 166.321,334.500 166.000 C 334.385 165.464,333.792 163.281,333.210 161.250 C 333.079 160.792,332.909 160.192,332.834 159.917 C 332.758 159.642,332.614 159.192,332.514 158.917 C 332.303 158.336,331.097 154.711,330.629 153.250 C 330.453 152.700,330.243 152.100,330.163 151.917 C 330.083 151.733,329.704 150.796,329.322 149.833 C 328.002 146.509,327.622 145.580,327.209 144.667 C 326.981 144.162,326.608 143.337,326.380 142.833 C 325.768 141.483,322.567 135.062,321.979 134.009 C 321.701 133.510,321.249 132.685,320.976 132.176 C 319.499 129.429,314.825 122.093,312.846 119.417 C 311.537 117.646,309.078 114.401,308.805 114.083 C 308.648 113.900,308.308 113.474,308.051 113.137 C 307.374 112.249,305.640 110.140,305.340 109.839 C 305.199 109.698,304.570 108.983,303.942 108.250 C 302.470 106.531,294.437 98.423,292.917 97.121 C 292.275 96.571,291.380 95.776,290.927 95.353 C 289.966 94.453,288.997 93.667,288.852 93.667 C 288.796 93.667,269.749 112.667,246.526 135.890 M89.123 116.814 C 88.832 117.237,88.122 118.221,87.545 119.000 C 86.968 119.779,86.440 120.492,86.373 120.583 C 86.243 120.758,83.403 125.026,83.041 125.591 C 82.925 125.770,82.705 126.160,82.551 126.458 C 82.398 126.756,82.210 127.000,82.136 127.000 C 82.061 127.000,82.000 127.074,82.000 127.163 C 82.000 127.253,81.720 127.760,81.378 128.288 C 81.035 128.817,80.674 129.400,80.574 129.583 C 80.004 130.635,79.396 131.700,78.871 132.570 C 78.022 133.975,75.472 138.935,74.409 141.250 C 73.267 143.737,72.892 144.588,71.802 147.167 C 71.163 148.679,70.500 150.329,70.328 150.833 C 69.791 152.409,69.566 152.990,69.448 153.108 C 69.385 153.171,69.333 153.330,69.333 153.461 C 69.333 153.592,69.229 153.936,69.102 154.225 C 68.885 154.718,67.288 159.655,66.992 160.750 C 66.917 161.025,66.739 161.662,66.596 162.167 C 66.453 162.671,66.155 163.721,65.934 164.500 C 65.364 166.509,64.240 171.480,63.842 173.750 C 63.762 174.208,63.657 174.771,63.609 175.000 C 63.179 177.070,62.569 181.004,62.330 183.250 C 62.232 184.167,62.047 185.817,61.918 186.917 C 61.211 192.960,61.209 206.979,61.914 213.083 C 62.041 214.183,62.229 215.908,62.331 216.917 C 62.509 218.668,62.692 219.915,63.261 223.250 C 63.754 226.140,63.870 226.757,64.090 227.667 C 64.212 228.171,64.400 229.071,64.507 229.667 C 64.615 230.262,64.805 231.125,64.929 231.583 C 65.311 233.000,65.871 235.229,65.954 235.667 C 66.040 236.118,67.036 239.617,67.425 240.833 C 67.557 241.246,67.977 242.521,68.358 243.667 C 68.739 244.813,69.196 246.200,69.374 246.750 C 69.552 247.300,69.791 247.975,69.907 248.250 C 70.022 248.525,70.210 249.012,70.325 249.333 C 70.440 249.654,70.598 250.067,70.677 250.250 C 70.755 250.433,71.204 251.521,71.674 252.667 C 73.253 256.515,76.995 264.407,77.995 266.000 C 78.081 266.137,78.743 267.300,79.467 268.583 C 80.720 270.808,81.757 272.559,82.575 273.833 C 82.781 274.154,83.183 274.792,83.467 275.250 C 83.752 275.708,84.099 276.233,84.240 276.417 C 84.380 276.600,84.795 277.200,85.161 277.750 C 85.526 278.300,85.904 278.862,86.000 279.000 C 86.096 279.137,86.324 279.475,86.508 279.750 C 86.691 280.025,87.158 280.680,87.545 281.205 C 87.933 281.730,88.734 282.817,89.325 283.621 C 90.364 285.035,90.727 285.495,92.645 287.828 C 93.137 288.427,93.694 289.104,93.882 289.333 C 97.514 293.755,110.321 306.500,111.133 306.500 C 111.198 306.500,115.226 302.520,120.084 297.655 L 128.917 288.810 128.333 288.363 C 128.012 288.118,127.375 287.577,126.917 287.161 C 126.458 286.746,125.633 286.034,125.083 285.580 C 124.533 285.125,123.626 284.303,123.068 283.752 C 122.509 283.201,121.459 282.179,120.734 281.481 C 118.479 279.308,115.624 276.316,114.276 274.713 C 113.565 273.868,112.910 273.131,112.821 273.076 C 112.732 273.021,112.346 272.550,111.963 272.030 C 111.580 271.509,111.163 270.978,111.036 270.850 C 110.430 270.234,107.205 265.809,105.619 263.417 C 104.890 262.317,104.152 261.212,103.978 260.963 C 102.753 259.197,99.933 254.152,98.112 250.465 C 96.066 246.322,95.874 245.907,94.931 243.583 C 94.596 242.758,94.253 241.933,94.170 241.750 C 93.412 240.089,91.546 234.576,90.643 231.333 C 89.716 227.999,89.521 227.195,88.421 222.167 C 88.291 221.571,88.106 220.596,88.012 220.000 C 87.917 219.404,87.728 218.242,87.592 217.417 C 85.830 206.742,85.834 193.411,87.603 182.750 C 87.740 181.925,87.930 180.762,88.025 180.167 C 88.119 179.571,88.266 178.764,88.351 178.375 C 88.436 177.985,88.654 176.935,88.837 176.041 C 89.019 175.148,89.286 173.967,89.430 173.417 C 89.574 172.867,89.752 172.154,89.825 171.833 C 90.044 170.875,90.834 168.019,90.990 167.621 C 91.069 167.417,91.334 166.575,91.577 165.750 C 91.821 164.925,92.084 164.100,92.162 163.917 C 92.241 163.733,92.439 163.171,92.603 162.667 C 92.767 162.162,92.960 161.679,93.034 161.592 C 93.107 161.505,93.167 161.328,93.167 161.200 C 93.167 161.072,93.269 160.731,93.395 160.442 C 93.881 159.320,94.501 157.744,94.500 157.630 C 94.500 157.563,94.698 157.076,94.939 156.546 C 95.180 156.017,95.510 155.283,95.672 154.917 C 96.943 152.035,97.377 151.120,98.663 148.603 C 99.944 146.098,100.804 144.505,101.330 143.667 C 101.416 143.529,101.754 142.951,102.081 142.382 C 102.944 140.879,105.207 137.337,106.457 135.531 L 107.538 133.970 106.894 133.305 C 106.540 132.940,102.516 128.906,97.951 124.342 L 89.652 116.044 89.123 116.814 " stroke="none" fill="#040404" fill-rule="evenodd"></path><path id="path2" d="" stroke="none" fill="#bc10080" fill-rule="evenodd"></path><path id="path3" d="" stroke="none" fill="#bc10080" fill-rule="evenodd"></path><path id="path4" d="" stroke="none" fill="#bc10080" fill-rule="evenodd"></path></g></svg>