<svg id="svg" version="1.1" xmlns="http://www.w3.org/2000/svg" xmlns:xlink="http://www.w3.org/1999/xlink" width="400" height="400" viewBox="0, 0, 400,400"><g id="svgg"><path id="path0" d="M190.333 29.590 C 189.188 29.708,187.693 29.812,187.011 29.819 C 185.659 29.835,185.494 29.852,177.000 30.852 C 175.680 31.007,174.864 31.137,171.417 31.743 C 170.683 31.872,169.521 32.066,168.833 32.175 C 168.146 32.283,167.171 32.469,166.667 32.589 C 166.162 32.709,165.300 32.893,164.750 32.998 C 164.200 33.104,163.478 33.260,163.147 33.345 C 162.815 33.431,162.140 33.583,161.647 33.684 C 160.144 33.991,159.660 34.108,157.583 34.666 C 156.483 34.962,155.274 35.267,154.897 35.343 C 154.519 35.419,153.769 35.625,153.230 35.799 C 152.691 35.974,151.575 36.319,150.750 36.567 C 148.343 37.289,145.630 38.155,145.000 38.402 C 144.679 38.528,143.517 38.946,142.417 39.331 C 141.317 39.715,140.267 40.089,140.083 40.162 C 139.900 40.234,139.412 40.423,139.000 40.580 C 138.587 40.738,138.120 40.935,137.961 41.017 C 137.801 41.099,137.597 41.167,137.507 41.167 C 137.416 41.167,136.947 41.346,136.463 41.565 C 135.979 41.784,135.058 42.169,134.417 42.420 C 132.969 42.988,132.394 43.235,130.917 43.925 C 130.275 44.224,129.338 44.645,128.834 44.860 C 127.291 45.517,118.844 49.817,117.225 50.770 C 116.386 51.263,115.617 51.667,115.517 51.667 C 115.416 51.667,115.333 51.737,115.333 51.822 C 115.333 51.908,115.186 52.024,115.006 52.081 C 114.826 52.139,114.148 52.500,113.501 52.884 C 112.853 53.269,112.191 53.658,112.030 53.750 C 111.238 54.202,109.073 55.577,109.000 55.675 C 108.954 55.737,108.681 55.908,108.392 56.056 C 108.103 56.203,107.053 56.876,106.059 57.550 C 105.064 58.224,103.950 58.975,103.583 59.219 C 103.217 59.462,102.840 59.725,102.746 59.803 C 102.652 59.880,102.352 60.085,102.079 60.258 C 101.346 60.725,98.718 62.636,97.667 63.469 C 97.162 63.868,96.638 64.283,96.500 64.391 C 96.362 64.500,95.987 64.770,95.667 64.993 C 95.096 65.390,92.665 67.313,92.500 67.498 C 92.454 67.550,92.079 67.851,91.667 68.168 C 90.706 68.906,88.782 70.546,87.083 72.076 C 86.350 72.736,85.075 73.881,84.250 74.621 C 82.266 76.399,75.030 83.707,73.477 85.500 C 72.802 86.279,72.100 87.068,71.917 87.253 C 71.733 87.438,71.402 87.793,71.181 88.043 L 70.778 88.497 181.847 199.568 C 242.936 260.658,293.130 310.864,293.391 311.137 C 293.948 311.721,293.957 311.706,292.218 313.044 C 291.650 313.481,291.087 313.936,290.968 314.055 C 290.848 314.175,290.450 314.492,290.083 314.761 C 289.717 315.030,289.267 315.377,289.083 315.532 C 288.900 315.688,288.300 316.142,287.750 316.543 C 287.200 316.943,286.295 317.604,285.740 318.010 C 284.573 318.865,284.353 319.022,282.667 320.208 C 281.979 320.692,280.892 321.423,280.250 321.832 C 279.608 322.241,279.046 322.623,279.000 322.681 C 278.954 322.739,278.692 322.912,278.417 323.065 C 278.142 323.218,277.692 323.489,277.417 323.667 C 277.142 323.845,276.625 324.161,276.269 324.370 C 275.913 324.579,275.500 324.825,275.352 324.917 C 273.703 325.939,272.153 326.851,271.823 326.995 C 271.600 327.092,271.192 327.316,270.917 327.493 C 270.642 327.670,270.229 327.922,270.000 328.054 C 269.159 328.538,261.722 332.271,260.833 332.656 C 260.329 332.874,259.429 333.274,258.833 333.545 C 257.217 334.280,256.537 334.570,255.250 335.078 C 254.608 335.331,253.821 335.647,253.500 335.780 C 252.062 336.378,251.251 336.690,249.750 337.223 C 249.108 337.451,248.133 337.800,247.583 337.997 C 247.033 338.195,246.133 338.492,245.583 338.658 C 245.033 338.825,244.396 339.037,244.167 339.130 C 243.938 339.223,243.450 339.381,243.083 339.482 C 242.717 339.583,241.629 339.895,240.667 340.176 C 238.702 340.749,235.385 341.639,234.500 341.831 C 232.927 342.173,230.520 342.708,230.000 342.832 C 228.489 343.193,224.916 343.859,222.833 344.168 C 222.146 344.270,221.171 344.429,220.667 344.521 C 220.162 344.613,219.075 344.757,218.250 344.839 C 217.425 344.922,216.037 345.067,215.167 345.162 C 206.030 346.152,193.942 346.231,186.500 345.349 C 185.721 345.257,184.296 345.100,183.333 345.001 C 181.657 344.828,179.118 344.485,177.167 344.168 C 174.327 343.706,172.978 343.465,172.083 343.260 C 171.533 343.133,170.633 342.943,170.083 342.836 C 169.175 342.661,168.347 342.478,166.167 341.973 C 165.754 341.877,165.079 341.704,164.667 341.588 C 164.254 341.472,163.504 341.284,163.000 341.170 C 161.176 340.758,154.481 338.738,153.167 338.203 C 152.938 338.109,152.375 337.918,151.917 337.777 C 151.037 337.506,148.980 336.767,148.417 336.519 C 148.233 336.438,147.558 336.167,146.917 335.917 C 146.275 335.667,145.487 335.353,145.167 335.220 C 144.846 335.087,144.433 334.916,144.250 334.841 C 143.569 334.561,141.721 333.771,140.833 333.379 C 139.016 332.577,130.403 328.270,129.421 327.673 C 128.869 327.336,127.825 326.742,127.102 326.351 C 125.615 325.548,124.443 324.810,124.361 324.625 C 124.331 324.556,124.238 324.500,124.156 324.500 C 123.897 324.500,120.539 322.350,116.667 319.706 C 116.130 319.340,112.994 317.047,112.667 316.781 C 112.529 316.670,112.154 316.396,111.833 316.172 C 111.513 315.949,110.912 315.495,110.500 315.164 C 110.087 314.833,109.188 314.117,108.500 313.573 C 102.531 308.848,92.198 298.779,89.032 294.604 C 88.785 294.278,88.546 294.009,88.499 294.006 C 88.453 294.003,84.452 297.965,79.607 302.810 L 70.798 311.620 72.357 313.434 C 74.193 315.571,83.919 325.351,86.083 327.238 C 86.908 327.957,87.995 328.920,88.498 329.378 C 89.001 329.836,89.676 330.404,89.998 330.640 C 90.320 330.877,90.710 331.197,90.866 331.352 C 91.021 331.507,91.621 331.994,92.199 332.436 C 92.777 332.877,93.325 333.324,93.417 333.428 C 93.508 333.532,93.883 333.834,94.250 334.099 C 94.617 334.364,94.954 334.625,95.000 334.677 C 95.046 334.730,95.528 335.099,96.073 335.498 C 96.617 335.897,97.179 336.318,97.323 336.434 C 98.876 337.691,105.741 342.483,108.167 344.004 C 108.304 344.090,108.701 344.349,109.049 344.580 C 109.397 344.811,109.718 345.000,109.763 345.000 C 109.807 345.000,110.348 345.328,110.964 345.729 C 112.603 346.795,115.272 348.333,115.483 348.333 C 115.584 348.333,115.667 348.400,115.667 348.482 C 115.667 348.564,115.854 348.678,116.083 348.735 C 116.313 348.793,116.500 348.913,116.500 349.003 C 116.500 349.093,116.581 349.167,116.680 349.167 C 116.779 349.167,117.323 349.441,117.889 349.777 C 118.894 350.374,126.931 354.461,128.250 355.046 C 128.617 355.208,129.517 355.610,130.250 355.938 C 132.068 356.750,132.800 357.073,133.583 357.406 C 136.538 358.662,139.054 359.664,140.500 360.162 C 140.729 360.241,141.779 360.614,142.833 360.991 C 145.542 361.959,147.351 362.565,149.083 363.083 C 149.908 363.329,150.771 363.592,151.000 363.667 C 152.237 364.069,155.017 364.844,157.000 365.339 C 157.321 365.419,157.996 365.594,158.500 365.727 C 160.545 366.270,161.460 366.496,162.333 366.675 C 162.837 366.778,163.700 366.963,164.250 367.085 C 164.800 367.208,165.737 367.397,166.333 367.505 C 166.929 367.613,167.829 367.800,168.333 367.920 C 168.837 368.041,169.887 368.225,170.667 368.329 C 171.446 368.434,172.608 368.621,173.250 368.744 C 173.892 368.867,175.054 369.049,175.833 369.147 C 176.612 369.245,178.112 369.437,179.167 369.572 C 186.293 370.487,190.751 370.738,199.917 370.740 C 210.290 370.742,213.856 370.509,224.250 369.147 C 224.983 369.051,226.146 368.870,226.833 368.744 C 227.521 368.618,228.646 368.434,229.333 368.334 C 230.021 368.234,231.071 368.049,231.667 367.923 C 232.262 367.797,233.200 367.606,233.750 367.499 C 234.300 367.392,235.275 367.193,235.917 367.057 C 236.558 366.921,237.458 366.734,237.917 366.640 C 238.848 366.451,240.366 366.071,241.500 365.744 C 241.912 365.625,242.662 365.434,243.167 365.319 C 244.830 364.943,253.248 362.429,254.833 361.835 C 255.338 361.647,256.425 361.265,257.250 360.987 C 258.075 360.709,258.900 360.422,259.083 360.348 C 259.267 360.274,260.242 359.897,261.250 359.509 C 263.363 358.697,264.133 358.381,264.539 358.159 C 264.699 358.071,264.903 358.000,264.993 358.000 C 265.084 358.000,265.553 357.822,266.037 357.605 C 266.521 357.389,267.479 356.966,268.167 356.666 C 268.854 356.366,269.942 355.879,270.583 355.584 C 271.225 355.289,272.050 354.913,272.417 354.749 C 273.597 354.222,280.675 350.650,281.500 350.166 C 283.532 348.974,287.010 347.000,287.079 347.000 C 287.129 347.000,287.825 346.576,288.627 346.059 C 289.428 345.541,290.383 344.929,290.750 344.699 C 291.117 344.469,291.620 344.143,291.868 343.974 C 292.117 343.805,292.365 343.667,292.421 343.667 C 292.477 343.667,292.768 343.479,293.069 343.250 C 293.369 343.021,293.695 342.833,293.794 342.833 C 293.892 342.833,293.997 342.774,294.028 342.700 C 294.058 342.627,294.721 342.135,295.500 341.607 C 297.601 340.184,299.052 339.177,299.333 338.947 C 299.471 338.835,299.871 338.566,300.223 338.349 C 300.575 338.132,300.987 337.830,301.140 337.677 C 301.292 337.525,302.579 336.522,304.000 335.449 C 312.037 329.378,322.417 319.702,328.052 313.029 L 329.224 311.641 273.487 255.891 C 242.832 225.228,217.629 200.090,217.482 200.028 C 217.335 199.967,216.697 199.315,216.066 198.580 C 215.434 197.844,214.459 196.757,213.900 196.163 C 213.341 195.569,212.045 194.183,211.020 193.083 C 209.995 191.983,208.203 190.192,207.037 189.103 C 205.871 188.013,204.467 186.697,203.917 186.178 C 203.367 185.659,202.392 184.789,201.750 184.243 C 201.108 183.698,200.471 183.102,200.333 182.918 C 200.196 182.734,178.937 161.418,153.090 135.548 C 127.244 109.679,106.132 88.483,106.174 88.447 C 106.216 88.410,106.587 88.124,107.000 87.812 C 107.412 87.499,107.938 87.083,108.167 86.886 C 109.051 86.126,110.472 85.023,112.487 83.532 C 113.640 82.678,114.771 81.830,115.000 81.647 C 115.229 81.464,116.279 80.737,117.333 80.032 C 118.388 79.327,119.287 78.713,119.333 78.667 C 119.422 78.578,120.701 77.737,122.292 76.721 C 122.819 76.385,123.453 75.972,123.702 75.805 C 123.950 75.637,124.197 75.500,124.251 75.500 C 124.305 75.500,124.777 75.219,125.300 74.875 C 125.823 74.531,126.663 74.030,127.167 73.762 C 127.671 73.493,128.308 73.142,128.583 72.981 C 128.858 72.821,129.421 72.503,129.833 72.275 C 130.246 72.048,130.921 71.672,131.333 71.441 C 132.274 70.913,139.107 67.500,139.223 67.500 C 139.270 67.500,139.858 67.249,140.529 66.943 C 141.971 66.284,144.112 65.346,144.583 65.167 C 145.726 64.731,147.122 64.174,147.917 63.835 C 148.308 63.669,150.260 62.965,151.333 62.603 C 151.746 62.464,152.496 62.191,153.000 61.997 C 153.504 61.803,154.292 61.534,154.750 61.399 C 155.208 61.264,155.883 61.054,156.250 60.932 C 156.617 60.810,157.254 60.613,157.667 60.495 C 158.079 60.377,158.867 60.135,159.417 59.958 C 161.447 59.302,167.471 57.833,170.583 57.235 C 171.317 57.094,172.367 56.875,172.917 56.749 C 173.467 56.622,174.517 56.433,175.250 56.328 C 175.983 56.224,177.146 56.036,177.833 55.912 C 178.521 55.787,179.796 55.603,180.667 55.503 C 181.537 55.404,183.150 55.214,184.250 55.083 C 193.676 53.955,206.825 53.954,215.833 55.080 C 216.887 55.212,218.500 55.404,219.417 55.507 C 220.333 55.610,221.646 55.797,222.333 55.923 C 223.021 56.048,224.146 56.232,224.833 56.330 C 225.521 56.429,226.571 56.616,227.167 56.745 C 227.762 56.875,228.700 57.066,229.250 57.169 C 230.443 57.392,231.430 57.616,234.750 58.415 C 236.125 58.745,237.400 59.052,237.583 59.095 C 238.200 59.242,239.569 59.641,241.833 60.332 C 245.540 61.464,246.043 61.626,247.000 62.000 C 247.504 62.197,248.367 62.494,248.917 62.659 C 249.467 62.825,250.142 63.054,250.417 63.168 C 250.692 63.282,251.067 63.433,251.250 63.505 C 251.529 63.614,254.258 64.701,255.417 65.165 C 257.053 65.821,257.732 66.107,258.667 66.534 C 259.262 66.806,260.087 67.179,260.500 67.364 C 263.736 68.812,270.710 72.465,274.455 74.672 C 275.672 75.389,279.423 77.734,279.500 77.825 C 279.546 77.880,280.108 78.258,280.750 78.667 C 281.392 79.075,281.954 79.451,282.000 79.503 C 282.046 79.554,282.683 80.000,283.417 80.494 C 284.150 80.987,285.153 81.697,285.646 82.071 C 286.139 82.444,286.776 82.919,287.063 83.126 C 287.349 83.333,287.698 83.599,287.837 83.717 C 287.977 83.835,288.440 84.172,288.866 84.465 C 289.293 84.759,289.741 85.094,289.863 85.210 C 289.984 85.326,290.421 85.681,290.833 85.998 C 291.246 86.315,291.621 86.615,291.667 86.665 C 291.712 86.714,292.162 87.091,292.667 87.502 C 297.749 91.644,306.030 99.691,309.816 104.167 C 310.398 104.854,311.040 105.578,311.244 105.774 L 311.614 106.132 320.407 97.336 C 329.554 88.188,329.561 88.179,328.709 87.806 C 328.638 87.775,327.711 86.775,326.649 85.583 C 324.113 82.738,316.991 75.615,314.529 73.463 C 313.459 72.527,312.433 71.603,312.250 71.410 C 312.067 71.217,311.242 70.501,310.417 69.819 C 309.592 69.137,308.556 68.280,308.115 67.914 C 307.231 67.182,305.900 66.142,304.398 65.012 C 303.858 64.606,303.379 64.227,303.333 64.170 C 303.287 64.114,302.987 63.887,302.667 63.667 C 302.346 63.446,302.046 63.222,302.000 63.169 C 301.954 63.116,301.504 62.777,301.000 62.417 C 300.496 62.056,300.046 61.720,300.000 61.671 C 299.954 61.621,299.617 61.380,299.250 61.134 C 298.883 60.889,297.983 60.269,297.250 59.756 C 295.241 58.350,291.706 56.000,291.602 56.000 C 291.551 56.000,291.189 55.782,290.797 55.515 C 290.404 55.248,289.596 54.726,289.000 54.354 C 288.404 53.983,287.826 53.601,287.715 53.506 C 287.605 53.411,287.461 53.333,287.396 53.333 C 287.331 53.333,286.323 52.771,285.156 52.083 C 283.989 51.396,282.951 50.833,282.850 50.833 C 282.749 50.833,282.667 50.758,282.667 50.667 C 282.667 50.575,282.560 50.500,282.429 50.500 C 282.298 50.500,282.091 50.406,281.970 50.292 C 281.848 50.177,280.362 49.376,278.666 48.511 C 276.971 47.647,275.358 46.815,275.083 46.663 C 274.808 46.511,273.871 46.069,273.000 45.680 C 271.363 44.949,270.770 44.677,268.282 43.518 C 267.475 43.141,266.742 42.833,266.655 42.833 C 266.567 42.833,266.365 42.769,266.206 42.691 C 264.743 41.973,259.482 39.908,258.000 39.471 C 257.679 39.376,257.342 39.247,257.250 39.184 C 257.158 39.121,256.783 38.974,256.417 38.858 C 256.050 38.742,255.487 38.545,255.167 38.422 C 254.846 38.299,253.683 37.923,252.583 37.586 C 251.483 37.249,250.283 36.877,249.917 36.758 C 249.550 36.640,248.912 36.450,248.500 36.337 C 248.088 36.224,247.487 36.033,247.167 35.913 C 246.846 35.794,246.246 35.619,245.833 35.525 C 244.493 35.219,244.275 35.164,242.333 34.643 C 240.137 34.053,239.401 33.876,238.292 33.668 C 237.857 33.587,237.439 33.482,237.363 33.435 C 237.288 33.388,236.781 33.274,236.238 33.180 C 235.695 33.087,234.725 32.893,234.083 32.749 C 232.833 32.470,231.202 32.166,228.667 31.740 C 227.796 31.594,226.521 31.372,225.833 31.248 C 225.146 31.124,223.833 30.937,222.917 30.833 C 222.000 30.730,220.463 30.541,219.500 30.414 C 218.537 30.287,216.737 30.106,215.500 30.012 C 214.262 29.917,211.787 29.724,210.000 29.583 C 205.908 29.260,193.477 29.264,190.333 29.590 M246.526 135.890 L 204.303 178.114 206.353 180.015 C 208.918 182.395,217.436 190.903,220.026 193.672 L 221.969 195.750 255.315 162.417 C 273.655 144.083,288.712 129.083,288.776 129.083 C 288.916 129.083,291.165 131.970,292.278 133.580 C 292.721 134.220,293.308 135.052,293.583 135.430 C 294.208 136.288,294.228 136.318,295.838 138.787 C 296.569 139.907,297.167 140.901,297.167 140.995 C 297.167 141.089,297.240 141.167,297.330 141.167 C 297.420 141.167,297.541 141.354,297.598 141.583 C 297.656 141.813,297.770 142.000,297.851 142.000 C 297.933 142.000,298.000 142.074,298.000 142.164 C 298.000 142.254,298.286 142.798,298.636 143.372 C 300.009 145.629,303.111 151.741,304.197 154.333 C 304.294 154.563,304.432 154.870,304.505 155.016 C 304.729 155.465,305.865 158.224,306.009 158.667 C 306.083 158.896,306.377 159.683,306.661 160.417 C 307.407 162.338,308.369 165.233,309.154 167.917 C 310.216 171.547,310.383 172.192,311.081 175.333 C 311.894 178.989,311.984 179.422,312.153 180.500 C 312.247 181.096,312.432 182.258,312.565 183.083 C 312.699 183.908,312.891 185.371,312.992 186.333 C 313.093 187.296,313.249 188.608,313.339 189.250 C 313.913 193.364,313.904 206.094,313.324 211.083 C 312.830 215.330,312.728 216.073,312.144 219.667 C 311.950 220.863,311.609 222.551,311.252 224.083 C 311.124 224.633,310.930 225.496,310.821 226.000 C 310.712 226.504,310.528 227.254,310.412 227.667 C 310.296 228.079,310.108 228.792,309.995 229.250 C 309.882 229.708,309.565 230.833,309.290 231.750 C 309.016 232.667,308.696 233.754,308.580 234.167 C 308.022 236.139,306.337 240.783,305.396 242.942 C 305.270 243.231,305.167 243.515,305.167 243.574 C 305.167 243.633,304.935 244.184,304.653 244.799 C 304.370 245.414,303.985 246.254,303.798 246.667 C 303.090 248.224,300.645 253.133,299.979 254.333 C 299.598 255.021,299.117 255.890,298.911 256.266 C 298.581 256.868,298.371 257.227,297.554 258.590 C 297.446 258.770,296.900 259.629,296.342 260.500 C 295.783 261.371,295.233 262.233,295.121 262.417 C 295.009 262.600,294.573 263.238,294.152 263.835 C 293.732 264.431,293.301 265.082,293.195 265.280 C 293.089 265.478,292.877 265.766,292.724 265.918 C 292.465 266.178,293.043 266.792,301.398 275.140 C 309.935 283.670,310.360 284.068,310.598 283.750 C 310.735 283.567,310.989 283.229,311.163 283.000 C 312.135 281.716,314.167 278.845,314.833 277.814 C 315.063 277.459,315.520 276.775,315.849 276.293 C 316.734 274.999,318.000 273.022,318.000 272.934 C 318.000 272.892,318.297 272.410,318.659 271.865 C 319.021 271.319,319.521 270.507,319.770 270.061 C 320.378 268.969,320.680 268.431,321.345 267.254 C 322.824 264.637,324.990 260.298,327.069 255.788 C 327.398 255.076,327.667 254.449,327.667 254.397 C 327.667 254.344,327.787 254.027,327.934 253.692 C 328.081 253.357,328.276 252.896,328.368 252.667 C 328.460 252.438,328.629 252.025,328.744 251.750 C 329.501 249.940,330.056 248.461,330.778 246.333 C 330.918 245.921,331.137 245.347,331.266 245.058 C 331.395 244.769,331.500 244.462,331.500 244.376 C 331.500 244.289,331.653 243.776,331.840 243.234 C 332.334 241.805,333.001 239.674,333.166 239.000 C 333.245 238.679,333.500 237.742,333.733 236.917 C 334.515 234.151,334.789 233.064,335.498 229.917 C 336.100 227.242,336.862 223.087,337.163 220.833 C 337.267 220.054,337.456 218.742,337.583 217.917 C 337.710 217.092,337.896 215.442,337.996 214.250 C 338.097 213.058,338.289 210.799,338.423 209.229 C 338.759 205.294,338.754 194.778,338.413 190.667 C 337.800 183.244,337.160 178.404,336.144 173.500 C 335.964 172.629,335.738 171.504,335.643 171.000 C 335.547 170.496,335.411 169.783,335.339 169.417 C 335.051 167.935,333.504 162.157,332.930 160.417 C 332.809 160.050,332.613 159.412,332.494 159.000 C 331.939 157.072,330.139 151.845,329.653 150.750 C 329.571 150.567,329.173 149.554,328.768 148.500 C 328.362 147.446,327.795 146.062,327.508 145.426 C 327.220 144.789,326.869 144.001,326.729 143.676 C 326.231 142.524,321.648 133.403,321.072 132.417 C 320.750 131.867,320.398 131.229,320.289 131.000 C 320.180 130.771,320.046 130.546,319.992 130.500 C 319.939 130.454,319.642 129.967,319.332 129.417 C 319.023 128.867,318.709 128.392,318.635 128.361 C 318.561 128.331,318.500 128.238,318.500 128.155 C 318.500 127.954,317.465 126.265,317.298 126.194 C 317.226 126.164,317.167 126.070,317.167 125.985 C 317.167 125.700,312.233 118.495,310.784 116.663 C 310.674 116.524,310.363 116.112,310.093 115.747 C 309.823 115.382,309.471 114.933,309.310 114.750 C 309.150 114.567,308.358 113.590,307.551 112.579 C 303.464 107.463,296.586 100.289,291.902 96.258 C 291.269 95.713,290.361 94.906,289.885 94.466 C 289.409 94.027,288.959 93.667,288.885 93.667 C 288.811 93.667,269.749 112.667,246.526 135.890 M89.396 116.535 C 89.208 116.745,88.876 117.179,88.657 117.500 C 88.438 117.821,88.126 118.229,87.963 118.406 C 87.800 118.584,87.667 118.790,87.667 118.865 C 87.667 118.939,87.535 119.133,87.375 119.295 C 87.215 119.457,86.484 120.489,85.751 121.587 C 85.018 122.685,84.375 123.621,84.322 123.667 C 84.203 123.770,80.828 129.203,80.327 130.097 C 80.125 130.456,79.557 131.436,79.064 132.275 C 78.570 133.114,78.167 133.876,78.167 133.970 C 78.167 134.063,78.110 134.164,78.042 134.194 C 77.804 134.300,73.578 142.942,72.635 145.250 C 72.447 145.708,72.115 146.479,71.897 146.963 C 71.679 147.447,71.500 147.938,71.500 148.055 C 71.500 148.171,71.430 148.338,71.344 148.425 C 71.193 148.579,70.646 149.967,70.002 151.833 C 69.828 152.337,69.449 153.387,69.160 154.167 C 68.871 154.946,68.497 156.033,68.329 156.583 C 68.161 157.133,67.787 158.296,67.496 159.167 C 67.206 160.037,66.908 161.012,66.834 161.333 C 66.760 161.654,66.571 162.367,66.415 162.917 C 65.866 164.850,65.291 167.093,65.005 168.417 C 64.886 168.967,64.694 169.792,64.577 170.250 C 64.461 170.708,64.278 171.571,64.171 172.167 C 64.064 172.762,63.875 173.737,63.751 174.333 C 63.304 176.486,63.022 178.113,62.828 179.667 C 62.719 180.537,62.526 181.879,62.398 182.647 C 62.271 183.415,62.167 184.349,62.167 184.722 C 62.167 185.094,62.093 186.003,62.004 186.741 C 60.966 195.302,61.134 207.450,62.429 217.500 C 62.877 220.979,63.358 224.003,63.754 225.833 C 63.883 226.429,64.072 227.367,64.175 227.917 C 64.445 229.365,65.134 232.448,65.403 233.417 C 65.531 233.875,65.729 234.662,65.843 235.167 C 66.074 236.191,66.734 238.564,67.070 239.583 C 67.191 239.950,67.387 240.588,67.506 241.000 C 68.218 243.475,70.277 249.314,71.179 251.417 C 71.257 251.600,71.596 252.425,71.930 253.250 C 72.265 254.075,72.830 255.376,73.186 256.142 C 73.542 256.907,73.833 257.569,73.833 257.613 C 73.833 257.752,77.293 264.695,77.929 265.833 C 78.262 266.429,78.836 267.479,79.205 268.167 C 79.574 268.854,80.076 269.717,80.321 270.083 C 80.566 270.450,80.814 270.862,80.873 271.000 C 81.140 271.618,86.280 279.515,86.948 280.333 C 87.061 280.471,87.757 281.408,88.496 282.417 C 90.117 284.628,91.492 286.435,91.839 286.809 C 91.979 286.960,92.390 287.458,92.752 287.917 C 95.043 290.820,100.545 296.784,103.629 299.707 C 106.307 302.246,108.846 304.568,110.057 305.587 L 111.198 306.547 120.040 297.703 C 129.525 288.216,129.020 288.820,128.038 288.142 C 127.830 287.998,127.380 287.625,127.038 287.312 C 126.696 287.000,125.659 286.095,124.734 285.302 C 122.602 283.474,116.493 277.364,114.935 275.500 C 114.283 274.721,113.698 274.060,113.635 274.031 C 113.572 274.003,113.085 273.440,112.552 272.781 C 112.020 272.122,111.541 271.546,111.489 271.500 C 111.437 271.454,111.062 270.967,110.656 270.417 C 110.249 269.867,109.835 269.342,109.734 269.250 C 109.634 269.158,109.377 268.821,109.162 268.500 C 108.948 268.179,108.673 267.804,108.551 267.667 C 108.161 267.228,105.269 263.034,104.750 262.153 C 104.475 261.687,104.171 261.218,104.075 261.111 C 103.867 260.879,102.228 258.230,101.636 257.167 C 101.406 256.754,100.825 255.704,100.344 254.833 C 99.864 253.963,99.406 253.137,99.328 253.000 C 99.109 252.618,97.278 248.908,96.613 247.500 C 95.832 245.845,94.708 243.177,93.840 240.917 C 93.453 239.908,93.070 238.933,92.990 238.750 C 92.555 237.757,90.508 231.129,90.004 229.083 C 89.891 228.625,89.703 227.912,89.585 227.500 C 89.468 227.088,89.279 226.300,89.166 225.750 C 89.053 225.200,88.861 224.338,88.741 223.833 C 88.621 223.329,88.435 222.429,88.330 221.833 C 88.224 221.237,88.038 220.225,87.917 219.583 C 87.796 218.942,87.616 217.817,87.517 217.083 C 87.418 216.350,87.229 214.963,87.097 214.000 C 85.996 205.970,85.990 193.986,87.083 186.250 C 87.213 185.333,87.400 183.983,87.501 183.250 C 87.601 182.517,87.786 181.354,87.911 180.667 C 88.037 179.979,88.226 178.929,88.331 178.333 C 88.436 177.737,88.621 176.838,88.741 176.333 C 88.861 175.829,89.051 174.967,89.162 174.417 C 89.274 173.867,89.460 173.117,89.576 172.750 C 89.692 172.383,89.880 171.671,89.993 171.167 C 90.258 169.981,90.589 168.825,91.277 166.685 C 91.583 165.733,91.833 164.882,91.833 164.794 C 91.833 164.706,91.939 164.397,92.069 164.109 C 92.199 163.820,92.391 163.283,92.496 162.917 C 92.602 162.550,92.788 161.987,92.909 161.667 C 93.437 160.273,94.051 158.712,94.253 158.250 C 94.374 157.975,94.697 157.188,94.972 156.500 C 95.247 155.813,95.684 154.762,95.943 154.167 C 96.452 152.998,99.761 146.344,100.378 145.250 C 100.841 144.430,101.857 142.679,102.083 142.314 C 102.175 142.166,102.438 141.725,102.667 141.333 C 103.279 140.287,103.380 140.128,103.792 139.554 C 103.998 139.267,104.167 138.956,104.167 138.863 C 104.167 138.770,104.223 138.669,104.292 138.639 C 104.362 138.608,104.754 138.058,105.164 137.417 C 105.574 136.775,105.949 136.212,105.996 136.167 C 106.044 136.121,106.411 135.605,106.812 135.021 L 107.541 133.958 98.639 125.056 L 89.737 116.154 89.396 116.535 " stroke="none" fill="#fcfcfc" fill-rule="evenodd"></path><path id="path1" d="M0.000 200.000 L 0.000 400.000 200.000 400.000 L 400.000 400.000 400.000 200.000 L 400.000 0.000 200.000 0.000 L 0.000 0.000 0.000 200.000 M206.290 29.332 C 210.629 29.521,215.742 29.907,218.417 30.248 C 219.425 30.377,221.075 30.566,222.083 30.669 C 223.092 30.772,224.442 30.958,225.083 31.082 C 225.725 31.207,226.887 31.395,227.667 31.500 C 228.446 31.605,229.608 31.793,230.250 31.917 C 230.892 32.041,231.904 32.231,232.500 32.339 C 233.096 32.447,233.996 32.635,234.500 32.757 C 235.004 32.878,235.904 33.067,236.500 33.175 C 237.096 33.284,238.183 33.524,238.917 33.708 C 239.650 33.893,240.512 34.101,240.833 34.170 C 241.154 34.239,242.317 34.537,243.417 34.833 C 244.517 35.129,245.679 35.428,246.000 35.496 C 246.321 35.564,247.033 35.770,247.583 35.953 C 248.133 36.135,249.033 36.417,249.583 36.579 C 252.503 37.438,253.448 37.746,256.000 38.670 C 256.779 38.952,257.829 39.324,258.333 39.497 C 259.873 40.027,261.555 40.661,262.109 40.920 C 262.397 41.056,262.679 41.167,262.735 41.167 C 262.791 41.167,263.155 41.307,263.543 41.478 C 263.932 41.649,264.775 41.995,265.417 42.246 C 266.058 42.498,266.979 42.883,267.463 43.102 C 267.947 43.321,268.371 43.500,268.407 43.500 C 268.442 43.500,269.421 43.950,270.583 44.500 C 271.745 45.050,272.730 45.500,272.772 45.500 C 273.128 45.500,283.816 51.107,285.167 52.002 C 285.304 52.093,285.567 52.239,285.750 52.327 C 286.179 52.531,287.631 53.414,290.281 55.083 C 291.445 55.817,292.477 56.454,292.574 56.500 C 292.671 56.546,293.079 56.808,293.481 57.083 C 293.882 57.358,294.495 57.771,294.842 58.000 C 295.188 58.229,295.797 58.647,296.194 58.928 C 296.592 59.209,297.404 59.775,298.000 60.186 C 299.275 61.065,300.482 61.930,300.833 62.215 C 300.971 62.326,301.496 62.715,302.000 63.078 C 302.504 63.442,302.954 63.784,303.000 63.840 C 303.046 63.896,303.683 64.384,304.417 64.926 C 305.602 65.802,307.109 66.998,308.333 68.034 C 308.563 68.228,309.125 68.684,309.583 69.047 C 310.388 69.685,311.547 70.680,313.491 72.404 C 318.267 76.638,329.148 87.756,329.163 88.417 C 329.165 88.509,325.197 92.553,320.346 97.404 L 311.526 106.223 311.055 105.658 C 310.795 105.347,310.200 104.678,309.732 104.171 C 309.263 103.665,308.631 102.950,308.328 102.583 C 307.285 101.325,299.250 93.306,297.501 91.778 C 296.539 90.938,295.561 90.063,295.328 89.833 C 294.804 89.318,292.545 87.448,291.515 86.677 C 291.094 86.362,290.637 85.993,290.500 85.855 C 290.195 85.551,284.212 81.096,283.167 80.395 C 282.754 80.118,281.475 79.260,280.325 78.488 C 277.947 76.892,277.801 76.797,277.000 76.330 C 276.679 76.144,276.214 75.861,275.966 75.704 C 275.718 75.546,274.893 75.049,274.133 74.600 C 273.372 74.151,272.393 73.570,271.956 73.308 C 271.519 73.047,271.120 72.833,271.070 72.833 C 271.019 72.833,270.364 72.471,269.614 72.029 C 268.400 71.313,261.958 68.085,260.000 67.211 C 259.587 67.027,258.912 66.726,258.500 66.541 C 258.087 66.356,256.887 65.856,255.833 65.428 C 254.779 65.001,253.767 64.589,253.583 64.512 C 253.400 64.435,252.725 64.165,252.083 63.912 C 251.442 63.658,250.692 63.356,250.417 63.241 C 250.142 63.125,249.467 62.885,248.917 62.707 C 248.367 62.529,246.979 62.072,245.833 61.691 C 242.872 60.706,242.493 60.588,240.167 59.923 C 235.347 58.545,232.255 57.814,226.750 56.753 C 225.650 56.541,224.150 56.282,223.417 56.179 C 222.683 56.075,221.408 55.882,220.583 55.750 C 217.499 55.254,214.062 54.883,210.583 54.670 C 202.822 54.193,201.292 54.140,197.917 54.230 C 191.446 54.401,184.192 54.999,179.417 55.755 C 178.592 55.885,177.317 56.076,176.583 56.179 C 175.850 56.282,174.762 56.466,174.167 56.587 C 173.571 56.709,172.596 56.894,172.000 56.997 C 171.404 57.101,170.653 57.254,170.331 57.337 C 170.009 57.421,169.034 57.634,168.165 57.809 C 165.657 58.316,161.175 59.485,158.500 60.329 C 158.271 60.401,157.633 60.594,157.083 60.757 C 156.533 60.919,155.446 61.271,154.667 61.537 C 153.887 61.803,152.500 62.271,151.583 62.577 C 150.667 62.883,149.692 63.225,149.417 63.337 C 149.142 63.450,148.767 63.603,148.583 63.679 C 148.400 63.754,147.688 64.039,147.000 64.312 C 146.313 64.585,144.981 65.113,144.042 65.486 C 143.102 65.859,142.202 66.234,142.042 66.319 C 141.431 66.643,139.166 67.667,139.058 67.667 C 138.846 67.667,132.088 71.063,130.667 71.884 C 129.887 72.334,128.692 73.003,128.009 73.372 C 127.327 73.741,125.878 74.595,124.789 75.271 C 123.699 75.947,122.773 76.500,122.730 76.500 C 122.688 76.500,122.562 76.577,122.451 76.670 C 122.341 76.764,121.500 77.326,120.583 77.920 C 119.667 78.514,118.804 79.072,118.667 79.162 C 117.869 79.681,112.330 83.687,111.656 84.233 C 111.512 84.349,110.950 84.770,110.406 85.169 C 109.862 85.567,109.379 85.941,109.333 86.000 C 109.287 86.058,108.837 86.429,108.333 86.823 C 107.137 87.759,106.333 88.467,106.333 88.583 C 106.333 88.635,127.390 109.747,153.125 135.500 C 178.860 161.253,200.143 182.569,200.420 182.870 C 200.696 183.171,201.521 183.947,202.253 184.596 C 205.583 187.548,207.126 189.009,210.010 191.940 C 211.711 193.669,213.551 195.608,214.097 196.250 C 215.292 197.653,216.597 199.089,217.167 199.628 C 220.202 202.497,329.167 311.576,329.167 311.744 C 329.167 311.873,328.585 312.602,327.873 313.364 C 327.162 314.126,326.009 315.387,325.310 316.167 C 321.556 320.355,313.139 328.316,308.891 331.699 C 308.510 332.002,307.422 332.871,306.474 333.629 C 305.526 334.388,304.412 335.266,304.000 335.580 C 301.480 337.501,300.396 338.312,299.701 338.794 C 298.284 339.776,297.770 340.135,296.083 341.318 C 294.420 342.484,287.645 346.765,285.750 347.846 C 285.200 348.160,284.600 348.507,284.417 348.618 C 284.233 348.728,283.929 348.890,283.741 348.976 C 283.553 349.063,282.841 349.463,282.158 349.865 C 280.860 350.630,272.919 354.636,271.333 355.325 C 270.142 355.843,267.665 356.979,267.294 357.178 C 267.135 357.264,266.931 357.333,266.840 357.333 C 266.750 357.333,266.280 357.512,265.796 357.731 C 265.312 357.950,264.392 358.337,263.750 358.590 C 263.108 358.844,262.208 359.219,261.750 359.424 C 261.292 359.629,260.204 360.034,259.333 360.324 C 258.462 360.614,257.600 360.916,257.417 360.996 C 256.774 361.274,254.742 362.000,254.605 362.000 C 254.529 362.000,254.231 362.103,253.942 362.228 C 253.653 362.354,253.079 362.549,252.667 362.662 C 252.254 362.775,251.617 362.963,251.250 363.079 C 250.883 363.195,250.246 363.383,249.833 363.496 C 249.421 363.609,248.896 363.778,248.667 363.872 C 248.438 363.966,248.025 364.104,247.750 364.179 C 247.475 364.253,246.987 364.386,246.667 364.473 C 246.346 364.560,245.033 364.901,243.750 365.232 C 242.467 365.562,241.154 365.902,240.833 365.986 C 239.323 366.385,238.166 366.659,237.250 366.836 C 236.700 366.943,235.800 367.132,235.250 367.257 C 233.347 367.691,231.912 367.982,230.750 368.170 C 230.108 368.275,228.983 368.461,228.250 368.586 C 224.775 369.174,222.296 369.522,219.333 369.836 C 218.371 369.938,216.990 370.092,216.265 370.178 C 209.562 370.970,190.200 370.968,183.833 370.175 C 183.146 370.090,181.796 369.936,180.833 369.834 C 178.667 369.605,175.553 369.207,174.333 369.002 C 172.622 368.715,170.421 368.356,169.167 368.159 C 168.479 368.052,167.680 367.893,167.392 367.808 C 167.103 367.722,166.503 367.587,166.058 367.507 C 164.872 367.294,161.521 366.571,160.750 366.363 C 159.513 366.028,155.921 365.122,155.333 364.997 C 154.598 364.840,153.166 364.439,152.083 364.087 C 151.625 363.938,150.162 363.485,148.833 363.081 C 146.319 362.316,144.156 361.599,143.583 361.341 C 143.129 361.136,141.381 360.514,140.667 360.304 C 140.160 360.154,138.948 359.686,137.708 359.159 C 136.844 358.792,135.711 358.329,134.250 357.744 C 133.128 357.295,131.179 356.444,128.738 355.337 C 127.645 354.842,119.158 350.607,118.540 350.249 C 117.812 349.827,113.867 347.579,113.445 347.345 C 112.651 346.905,112.478 346.799,110.029 345.250 C 105.964 342.679,105.510 342.387,105.125 342.106 C 104.919 341.956,104.075 341.364,103.250 340.791 C 102.425 340.217,101.563 339.617,101.333 339.456 C 101.104 339.295,100.617 338.965,100.250 338.723 C 99.883 338.481,99.546 338.238,99.500 338.181 C 99.454 338.125,98.779 337.607,98.000 337.030 C 97.221 336.453,96.466 335.885,96.323 335.768 C 96.179 335.652,95.617 335.230,95.073 334.831 C 94.528 334.433,94.046 334.064,94.000 334.012 C 93.905 333.903,92.854 333.045,90.917 331.492 C 90.183 330.904,89.508 330.342,89.417 330.243 C 89.325 330.144,88.763 329.658,88.167 329.163 C 87.571 328.668,86.596 327.803,86.000 327.240 C 85.404 326.677,83.942 325.315,82.750 324.213 C 80.313 321.958,76.257 317.840,74.250 315.583 C 73.517 314.758,72.787 313.986,72.628 313.868 C 72.269 313.600,70.833 311.848,70.833 311.678 C 70.833 311.540,88.325 294.000,88.462 294.000 C 88.586 294.000,89.224 294.693,90.917 296.664 C 92.888 298.960,100.877 306.947,103.417 309.162 C 104.517 310.121,105.458 310.964,105.508 311.034 C 105.559 311.104,106.053 311.519,106.608 311.956 C 108.433 313.394,110.082 314.730,110.167 314.839 C 110.212 314.898,110.942 315.445,111.787 316.054 C 112.632 316.663,113.457 317.272,113.620 317.407 C 113.783 317.543,114.442 318.030,115.083 318.491 C 115.725 318.952,116.325 319.388,116.417 319.461 C 117.144 320.033,122.481 323.500,122.636 323.500 C 122.745 323.500,122.833 323.558,122.833 323.628 C 122.833 323.699,123.265 324.003,123.792 324.304 C 124.319 324.605,125.087 325.071,125.500 325.339 C 125.912 325.607,126.400 325.904,126.583 325.998 C 126.914 326.168,127.823 326.678,129.750 327.776 C 130.955 328.462,138.413 332.196,140.167 332.991 C 142.618 334.102,143.432 334.455,144.583 334.907 C 145.225 335.159,145.900 335.428,146.083 335.505 C 148.276 336.420,149.687 336.954,151.750 337.650 C 152.850 338.020,154.200 338.478,154.750 338.667 C 157.004 339.439,161.589 340.775,163.583 341.239 C 164.798 341.522,166.217 341.889,167.500 342.252 C 167.912 342.368,168.813 342.556,169.500 342.668 C 170.188 342.780,171.162 342.969,171.667 343.089 C 175.592 344.020,182.587 344.953,190.333 345.578 C 194.706 345.932,205.403 345.933,209.667 345.581 C 215.722 345.081,216.321 345.016,221.333 344.323 C 223.415 344.035,226.495 343.499,228.500 343.076 C 229.096 342.950,230.033 342.764,230.583 342.662 C 231.133 342.560,231.996 342.375,232.500 342.251 C 234.874 341.666,238.526 340.728,239.250 340.517 C 242.228 339.648,246.245 338.373,248.750 337.502 C 250.077 337.040,250.547 336.866,251.917 336.330 C 252.100 336.258,252.775 335.996,253.417 335.747 C 254.058 335.498,254.733 335.233,254.917 335.158 C 256.174 334.646,256.733 334.403,258.708 333.515 C 259.098 333.339,259.979 332.946,260.666 332.640 C 262.239 331.939,268.113 329.015,269.333 328.325 C 269.837 328.039,270.550 327.635,270.917 327.426 C 271.283 327.217,272.033 326.801,272.583 326.501 C 273.133 326.202,273.702 325.854,273.846 325.729 C 273.991 325.603,274.153 325.500,274.207 325.500 C 274.354 325.500,278.694 322.784,280.558 321.525 C 281.461 320.915,282.586 320.163,283.058 319.854 C 284.002 319.235,286.368 317.497,286.500 317.325 C 286.546 317.266,286.855 317.037,287.187 316.817 C 287.927 316.326,289.719 314.981,289.833 314.830 C 289.879 314.770,290.220 314.502,290.590 314.235 C 290.961 313.968,291.847 313.267,292.559 312.677 L 293.854 311.604 182.315 200.065 L 70.775 88.525 71.763 87.316 C 74.113 84.438,83.383 75.128,86.750 72.264 C 87.483 71.640,88.196 71.005,88.333 70.853 C 88.618 70.538,93.595 66.445,94.391 65.872 C 94.680 65.664,95.172 65.289,95.485 65.039 C 95.798 64.788,96.258 64.433,96.509 64.250 C 96.759 64.067,97.839 63.258,98.909 62.452 C 99.978 61.647,101.655 60.449,102.635 59.791 C 103.615 59.133,104.454 58.554,104.500 58.504 C 104.568 58.431,105.705 57.671,107.000 56.834 C 107.138 56.745,107.513 56.501,107.833 56.292 C 109.724 55.058,113.947 52.505,115.833 51.455 C 116.337 51.175,116.975 50.813,117.250 50.651 C 118.699 49.797,126.167 46.002,128.418 44.976 C 129.150 44.642,130.350 44.090,131.083 43.750 C 131.817 43.410,132.717 43.020,133.083 42.884 C 133.450 42.747,133.900 42.573,134.083 42.496 C 134.267 42.419,134.717 42.231,135.083 42.078 C 135.450 41.925,135.900 41.736,136.083 41.658 C 137.992 40.849,139.991 40.078,141.667 39.505 C 143.706 38.808,145.101 38.314,145.417 38.179 C 145.764 38.029,146.832 37.675,147.833 37.378 C 150.731 36.516,151.505 36.282,152.083 36.094 C 152.450 35.974,153.087 35.783,153.500 35.668 C 153.912 35.553,154.587 35.364,155.000 35.247 C 155.412 35.130,156.125 34.948,156.583 34.844 C 157.042 34.739,157.792 34.547,158.250 34.418 C 159.362 34.104,162.340 33.406,163.583 33.168 C 164.133 33.063,165.033 32.876,165.583 32.753 C 167.570 32.309,170.272 31.814,172.417 31.500 C 173.150 31.393,174.313 31.206,175.000 31.084 C 175.688 30.963,177.037 30.780,178.000 30.677 C 178.963 30.574,180.612 30.381,181.667 30.250 C 188.752 29.363,198.591 28.997,206.290 29.332 M290.061 94.541 C 295.074 98.824,301.662 105.421,305.667 110.167 C 306.170 110.763,306.623 111.287,306.675 111.333 C 306.828 111.470,308.706 113.822,309.323 114.649 C 309.638 115.071,310.000 115.522,310.129 115.652 C 310.258 115.781,310.542 116.156,310.762 116.485 C 310.981 116.814,311.689 117.796,312.335 118.667 C 312.980 119.537,314.405 121.600,315.500 123.250 C 316.595 124.900,317.549 126.325,317.621 126.417 C 317.692 126.508,317.862 126.808,318.000 127.083 C 318.137 127.358,318.291 127.621,318.341 127.667 C 318.477 127.790,319.500 129.490,319.500 129.593 C 319.500 129.641,319.579 129.771,319.677 129.882 C 320.289 130.580,325.569 140.767,326.649 143.333 C 326.861 143.837,327.259 144.737,327.535 145.333 C 327.810 145.929,328.093 146.567,328.164 146.750 C 328.235 146.933,328.424 147.421,328.583 147.833 C 328.743 148.246,328.935 148.733,329.012 148.917 C 329.592 150.316,330.522 152.756,330.791 153.583 C 330.970 154.133,331.418 155.483,331.787 156.583 C 332.662 159.190,334.074 163.889,334.216 164.667 C 334.258 164.896,334.455 165.721,334.654 166.500 C 335.311 169.070,335.470 169.736,335.743 171.083 C 335.892 171.817,336.081 172.717,336.162 173.083 C 336.452 174.395,336.815 176.440,337.003 177.833 C 337.109 178.612,337.266 179.574,337.353 179.970 C 337.440 180.367,337.586 181.417,337.678 182.304 C 337.770 183.191,337.911 184.554,337.993 185.333 C 339.012 195.133,339.093 203.954,338.239 212.417 C 338.100 213.792,337.912 215.667,337.821 216.583 C 337.730 217.500,337.551 218.887,337.423 219.667 C 337.296 220.446,337.103 221.721,336.996 222.500 C 336.888 223.279,336.704 224.329,336.587 224.833 C 336.470 225.338,336.281 226.313,336.168 227.000 C 335.828 229.049,334.480 234.689,333.577 237.833 C 332.735 240.766,331.308 245.187,330.591 247.083 C 330.349 247.725,330.037 248.588,329.898 249.000 C 329.667 249.687,328.599 252.381,328.080 253.583 C 327.170 255.695,325.913 258.517,325.668 259.000 C 325.505 259.321,324.948 260.446,324.430 261.500 C 323.027 264.355,321.379 267.428,320.022 269.720 C 319.597 270.437,319.175 271.152,319.083 271.308 C 318.172 272.860,315.725 276.669,314.549 278.365 C 312.965 280.651,310.703 283.826,310.488 284.064 C 310.169 284.418,292.419 266.323,292.677 265.907 C 292.809 265.695,293.637 264.448,294.517 263.136 C 298.676 256.935,302.371 250.105,304.871 244.000 C 305.227 243.129,305.586 242.267,305.667 242.083 C 306.200 240.887,306.883 238.980,307.996 235.583 C 308.386 234.392,308.801 233.154,308.918 232.833 C 309.035 232.512,309.220 231.912,309.329 231.500 C 309.569 230.593,309.916 229.306,310.239 228.125 C 310.371 227.644,310.553 226.912,310.643 226.500 C 310.733 226.088,310.921 225.262,311.061 224.667 C 311.694 221.960,312.224 219.077,312.484 216.917 C 312.573 216.183,312.718 215.208,312.808 214.750 C 314.083 208.226,314.051 194.270,312.738 184.917 C 312.596 183.908,312.407 182.558,312.317 181.917 C 312.227 181.275,312.049 180.262,311.921 179.667 C 311.793 179.071,311.605 178.096,311.502 177.500 C 311.399 176.904,311.209 176.004,311.081 175.500 C 310.953 174.996,310.650 173.758,310.408 172.750 C 310.167 171.742,309.785 170.279,309.559 169.500 C 308.717 166.584,308.306 165.238,308.136 164.833 C 308.039 164.604,307.825 163.967,307.659 163.417 C 307.362 162.431,306.638 160.401,306.352 159.750 C 306.272 159.567,305.997 158.892,305.742 158.250 C 304.733 155.711,303.418 152.676,302.709 151.250 C 302.298 150.425,301.796 149.412,301.593 149.000 C 301.389 148.587,300.901 147.650,300.508 146.917 C 300.115 146.183,299.596 145.208,299.355 144.750 C 299.114 144.292,298.860 143.892,298.792 143.861 C 298.723 143.831,298.667 143.746,298.667 143.674 C 298.667 143.602,298.179 142.739,297.583 141.756 C 296.987 140.774,296.500 139.908,296.500 139.832 C 296.500 139.756,296.443 139.669,296.372 139.639 C 296.302 139.608,295.736 138.796,295.115 137.833 C 293.747 135.714,293.001 134.658,290.608 131.450 L 288.767 128.983 255.425 162.325 C 237.087 180.663,222.014 195.667,221.929 195.667 C 221.733 195.667,219.790 193.665,217.388 190.990 C 215.289 188.653,210.878 184.267,208.503 182.155 C 206.469 180.347,204.265 178.184,204.350 178.079 C 204.965 177.320,288.650 93.704,288.811 93.688 C 288.936 93.676,289.498 94.060,290.061 94.541 M105.951 136.397 C 103.133 140.632,102.228 142.103,100.199 145.750 C 99.705 146.637,96.428 153.259,96.116 154.000 C 95.980 154.321,95.668 155.033,95.421 155.583 C 95.175 156.133,94.913 156.733,94.840 156.917 C 94.701 157.264,94.219 158.506,94.000 159.083 C 93.930 159.267,93.757 159.717,93.616 160.083 C 93.116 161.378,91.803 165.128,91.544 166.000 C 90.932 168.065,90.453 169.695,90.247 170.417 C 90.021 171.207,89.312 174.144,89.000 175.583 C 88.920 175.950,88.741 176.775,88.602 177.417 C 88.050 179.960,87.080 186.050,86.916 188.000 C 86.282 195.571,86.120 199.865,86.329 203.542 C 86.691 209.890,86.991 213.483,87.327 215.500 C 87.426 216.096,87.621 217.296,87.760 218.167 C 88.026 219.827,88.216 220.868,88.583 222.667 C 88.705 223.262,88.894 224.200,89.005 224.750 C 89.115 225.300,89.299 226.088,89.414 226.500 C 89.529 226.912,89.713 227.662,89.822 228.167 C 89.931 228.671,90.119 229.383,90.239 229.750 C 90.359 230.117,90.541 230.717,90.644 231.083 C 91.295 233.396,91.841 235.210,91.927 235.350 C 91.982 235.439,92.165 235.978,92.335 236.547 C 92.649 237.605,93.378 239.650,93.655 240.250 C 93.740 240.433,94.046 241.218,94.337 241.993 C 94.627 242.768,95.017 243.743,95.204 244.160 C 95.391 244.576,95.692 245.254,95.873 245.667 C 97.780 250.000,99.907 254.096,102.833 259.067 C 103.918 260.909,108.805 268.074,109.154 268.333 C 109.216 268.379,109.448 268.679,109.669 269.000 C 110.119 269.651,111.986 272.037,112.147 272.167 C 112.204 272.212,112.848 272.962,113.579 273.833 C 114.311 274.704,115.402 275.942,116.005 276.583 C 116.608 277.225,117.660 278.350,118.343 279.083 C 119.025 279.817,120.147 280.942,120.835 281.583 C 121.523 282.225,122.761 283.379,123.585 284.148 C 124.409 284.917,125.927 286.260,126.958 287.133 C 127.990 288.006,128.833 288.765,128.833 288.819 C 128.833 288.873,124.864 292.886,120.013 297.737 L 111.193 306.556 110.770 306.278 C 110.537 306.126,109.875 305.568,109.298 305.040 C 108.722 304.511,107.652 303.554,106.922 302.914 C 103.925 300.287,96.873 293.008,94.275 289.860 C 93.923 289.433,93.349 288.746,93.002 288.333 C 92.457 287.687,91.100 285.989,89.740 284.250 C 89.306 283.696,88.748 282.926,88.046 281.917 C 87.792 281.550,87.460 281.113,87.310 280.946 C 87.160 280.780,86.299 279.542,85.398 278.196 C 84.496 276.851,83.719 275.712,83.670 275.667 C 83.516 275.523,82.667 274.179,82.667 274.079 C 82.667 274.027,82.367 273.532,82.000 272.980 C 81.633 272.428,81.333 271.950,81.333 271.918 C 81.333 271.886,80.970 271.273,80.525 270.555 C 80.081 269.837,79.413 268.688,79.042 268.000 C 78.670 267.313,78.090 266.262,77.751 265.667 C 77.207 264.710,74.174 258.573,73.592 257.250 C 73.471 256.975,73.138 256.240,72.852 255.618 C 72.567 254.995,72.333 254.450,72.333 254.407 C 72.333 254.365,72.191 254.012,72.016 253.623 C 71.492 252.453,69.557 247.487,69.209 246.417 C 69.030 245.867,68.573 244.479,68.192 243.333 C 67.542 241.375,67.177 240.202,66.789 238.833 C 66.698 238.512,66.566 238.093,66.494 237.902 C 66.423 237.710,66.055 236.285,65.677 234.735 C 65.298 233.185,64.884 231.504,64.756 231.000 C 64.628 230.496,64.437 229.633,64.332 229.083 C 64.226 228.533,64.042 227.671,63.922 227.167 C 63.803 226.662,63.617 225.688,63.509 225.000 C 63.402 224.313,63.212 223.188,63.088 222.500 C 62.964 221.813,62.782 220.612,62.685 219.833 C 62.587 219.054,62.396 217.554,62.259 216.500 C 61.215 208.468,60.891 190.416,61.750 188.138 C 61.796 188.016,61.905 187.092,61.992 186.083 C 62.131 184.463,62.355 182.631,62.829 179.250 C 63.022 177.874,63.608 174.510,63.918 173.000 C 64.060 172.313,64.244 171.412,64.328 171.000 C 64.455 170.377,64.729 169.197,65.432 166.250 C 65.476 166.067,65.705 165.204,65.942 164.333 C 66.179 163.462,66.544 162.112,66.753 161.333 C 67.274 159.400,69.653 152.288,69.845 152.092 C 69.930 152.005,70.000 151.828,70.000 151.700 C 70.000 151.572,70.104 151.231,70.230 150.942 C 70.357 150.653,70.773 149.629,71.155 148.667 C 71.971 146.612,72.001 146.541,72.566 145.287 C 72.805 144.758,73.000 144.279,73.000 144.224 C 73.000 143.885,77.353 135.140,78.593 132.988 C 79.152 132.018,79.659 131.118,79.720 130.988 C 79.781 130.857,79.906 130.637,79.998 130.500 C 80.090 130.362,80.637 129.462,81.214 128.500 C 82.563 126.251,82.633 126.140,84.277 123.667 C 86.189 120.788,87.686 118.625,87.947 118.363 C 88.068 118.242,88.167 118.084,88.167 118.012 C 88.167 117.941,88.344 117.691,88.561 117.457 C 88.777 117.223,89.126 116.792,89.334 116.498 L 89.714 115.965 98.671 124.921 L 107.628 133.877 105.951 136.397 " stroke="none" fill="#040404" fill-rule="evenodd"></path><path id="path2" d="" stroke="none" fill="#c010080" fill-rule="evenodd"></path><path id="path3" d="M197.958 29.291 C 199.081 29.320,200.919 29.320,202.042 29.291 C 203.165 29.262,202.246 29.239,200.000 29.239 C 197.754 29.239,196.835 29.262,197.958 29.291 M187.295 29.787 C 187.594 29.825,188.044 29.824,188.295 29.786 C 188.545 29.748,188.300 29.717,187.750 29.718 C 187.200 29.719,186.995 29.750,187.295 29.787 M211.875 29.786 C 212.127 29.824,212.540 29.824,212.792 29.786 C 213.044 29.748,212.838 29.717,212.333 29.717 C 211.829 29.717,211.623 29.748,211.875 29.786 M182.875 30.115 C 183.035 30.157,183.298 30.157,183.458 30.115 C 183.619 30.073,183.487 30.039,183.167 30.039 C 182.846 30.039,182.715 30.073,182.875 30.115 M216.542 30.115 C 216.702 30.157,216.965 30.157,217.125 30.115 C 217.285 30.073,217.154 30.039,216.833 30.039 C 216.512 30.039,216.381 30.073,216.542 30.115 M178.708 30.615 C 178.869 30.657,179.131 30.657,179.292 30.615 C 179.452 30.573,179.321 30.539,179.000 30.539 C 178.679 30.539,178.548 30.573,178.708 30.615 M220.708 30.615 C 220.869 30.657,221.131 30.657,221.292 30.615 C 221.452 30.573,221.321 30.539,221.000 30.539 C 220.679 30.539,220.548 30.573,220.708 30.615 M189.961 54.621 C 190.261 54.658,190.711 54.657,190.961 54.619 C 191.212 54.581,190.967 54.551,190.417 54.552 C 189.867 54.553,189.662 54.584,189.961 54.621 M209.128 54.621 C 209.428 54.658,209.878 54.657,210.128 54.619 C 210.378 54.581,210.133 54.551,209.583 54.552 C 209.033 54.553,208.828 54.584,209.128 54.621 M185.542 54.948 C 185.702 54.990,185.965 54.990,186.125 54.948 C 186.285 54.906,186.154 54.872,185.833 54.872 C 185.512 54.872,185.381 54.906,185.542 54.948 M213.960 54.951 C 214.168 54.991,214.468 54.990,214.627 54.948 C 214.786 54.906,214.617 54.874,214.250 54.875 C 213.883 54.877,213.753 54.911,213.960 54.951 M218.208 55.448 C 218.369 55.490,218.631 55.490,218.792 55.448 C 218.952 55.406,218.821 55.372,218.500 55.372 C 218.179 55.372,218.048 55.406,218.208 55.448 M86.075 72.875 L 85.417 73.583 86.125 72.925 C 86.784 72.312,86.910 72.167,86.784 72.167 C 86.757 72.167,86.438 72.485,86.075 72.875 M72.742 86.208 L 72.083 86.917 72.792 86.258 C 73.450 85.645,73.577 85.500,73.450 85.500 C 73.423 85.500,73.105 85.819,72.742 86.208 M296.000 90.385 C 296.000 90.414,296.244 90.658,296.542 90.927 L 297.083 91.417 296.594 90.875 C 296.138 90.370,296.000 90.257,296.000 90.385 M291.000 95.385 C 291.000 95.414,291.244 95.658,291.542 95.927 L 292.083 96.417 291.594 95.875 C 291.138 95.370,291.000 95.257,291.000 95.385 M295.917 100.000 C 296.646 100.733,297.280 101.333,297.326 101.333 C 297.371 101.333,296.812 100.733,296.083 100.000 C 295.354 99.267,294.720 98.667,294.674 98.667 C 294.629 98.667,295.188 99.267,295.917 100.000 M298.667 102.601 C 298.667 102.687,299.285 103.356,300.042 104.087 L 301.417 105.417 300.083 104.005 C 299.350 103.228,298.731 102.560,298.708 102.519 C 298.685 102.478,298.667 102.515,298.667 102.601 M308.833 103.219 C 308.833 103.248,309.077 103.491,309.375 103.760 L 309.917 104.250 309.427 103.708 C 308.971 103.203,308.833 103.090,308.833 103.219 M303.833 108.219 C 303.833 108.248,304.077 108.491,304.375 108.760 L 304.917 109.250 304.427 108.708 C 303.971 108.203,303.833 108.090,303.833 108.219 M98.583 125.000 C 103.533 129.950,107.620 134.000,107.666 134.000 C 107.711 134.000,103.699 129.950,98.750 125.000 C 93.801 120.050,89.714 116.000,89.668 116.000 C 89.622 116.000,93.634 120.050,98.583 125.000 M207.750 181.500 C 208.108 181.867,208.438 182.167,208.484 182.167 C 208.530 182.167,208.275 181.867,207.917 181.500 C 207.559 181.133,207.228 180.833,207.182 180.833 C 207.137 180.833,207.392 181.133,207.750 181.500 M337.872 184.833 C 337.872 185.154,337.906 185.285,337.948 185.125 C 337.990 184.965,337.990 184.702,337.948 184.542 C 337.906 184.381,337.872 184.512,337.872 184.833 M62.042 185.250 C 62.044 185.617,62.078 185.747,62.118 185.540 C 62.158 185.332,62.156 185.032,62.115 184.873 C 62.073 184.714,62.040 184.883,62.042 185.250 M313.042 187.417 C 313.044 187.783,313.078 187.914,313.118 187.706 C 313.158 187.499,313.156 187.199,313.115 187.040 C 313.073 186.880,313.040 187.050,313.042 187.417 M86.875 187.917 C 86.877 188.283,86.911 188.414,86.951 188.206 C 86.991 187.999,86.990 187.699,86.948 187.540 C 86.906 187.380,86.874 187.550,86.875 187.917 M61.718 189.083 C 61.719 189.633,61.750 189.838,61.787 189.539 C 61.825 189.239,61.824 188.789,61.786 188.539 C 61.748 188.288,61.717 188.533,61.718 189.083 M338.383 190.167 C 338.383 190.671,338.415 190.877,338.453 190.625 C 338.491 190.373,338.491 189.960,338.453 189.708 C 338.415 189.456,338.383 189.662,338.383 190.167 M313.385 191.083 C 313.386 191.633,313.417 191.838,313.454 191.539 C 313.491 191.239,313.490 190.789,313.452 190.539 C 313.414 190.288,313.384 190.533,313.385 191.083 M86.552 191.750 C 86.553 192.300,86.584 192.505,86.621 192.205 C 86.658 191.906,86.657 191.456,86.619 191.205 C 86.581 190.955,86.551 191.200,86.552 191.750 M218.500 192.250 C 218.811 192.571,219.103 192.833,219.149 192.833 C 219.195 192.833,218.978 192.571,218.667 192.250 C 218.356 191.929,218.064 191.667,218.018 191.667 C 217.972 191.667,218.189 191.929,218.500 192.250 M338.740 200.083 C 338.740 202.558,338.763 203.594,338.791 202.385 C 338.820 201.176,338.820 199.151,338.791 197.885 C 338.763 196.619,338.740 197.608,338.740 200.083 M61.234 200.167 C 61.234 201.588,61.259 202.169,61.291 201.458 C 61.322 200.748,61.322 199.585,61.291 198.875 C 61.259 198.165,61.234 198.746,61.234 200.167 M86.550 208.333 C 86.550 208.838,86.581 209.044,86.619 208.792 C 86.658 208.540,86.658 208.127,86.619 207.875 C 86.581 207.623,86.550 207.829,86.550 208.333 M313.381 209.083 C 313.382 209.542,313.415 209.709,313.453 209.456 C 313.491 209.203,313.490 208.828,313.451 208.623 C 313.411 208.418,313.380 208.625,313.381 209.083 M338.385 210.083 C 338.386 210.633,338.417 210.838,338.454 210.539 C 338.491 210.239,338.490 209.789,338.452 209.539 C 338.414 209.288,338.384 209.533,338.385 210.083 M61.717 211.000 C 61.717 211.504,61.748 211.710,61.786 211.458 C 61.824 211.206,61.824 210.794,61.786 210.542 C 61.748 210.290,61.717 210.496,61.717 211.000 M86.872 212.167 C 86.872 212.487,86.906 212.619,86.948 212.458 C 86.990 212.298,86.990 212.035,86.948 211.875 C 86.906 211.715,86.872 211.846,86.872 212.167 M313.042 212.917 C 313.044 213.283,313.078 213.414,313.118 213.206 C 313.158 212.999,313.156 212.699,313.115 212.540 C 313.073 212.380,313.040 212.550,313.042 212.917 M62.039 214.833 C 62.039 215.154,62.073 215.285,62.115 215.125 C 62.157 214.965,62.157 214.702,62.115 214.542 C 62.073 214.381,62.039 214.512,62.039 214.833 M337.872 215.333 C 337.872 215.654,337.906 215.785,337.948 215.625 C 337.990 215.465,337.990 215.202,337.948 215.042 C 337.906 214.881,337.872 215.012,337.872 215.333 M312.539 216.500 C 312.539 216.821,312.573 216.952,312.615 216.792 C 312.657 216.631,312.657 216.369,312.615 216.208 C 312.573 216.048,312.539 216.179,312.539 216.500 M116.583 277.333 C 116.941 277.700,117.272 278.000,117.318 278.000 C 117.363 278.000,117.108 277.700,116.750 277.333 C 116.392 276.967,116.062 276.667,116.016 276.667 C 115.970 276.667,116.225 276.967,116.583 277.333 M122.583 283.333 C 122.941 283.700,123.272 284.000,123.318 284.000 C 123.363 284.000,123.108 283.700,122.750 283.333 C 122.392 282.967,122.062 282.667,122.016 282.667 C 121.970 282.667,122.225 282.967,122.583 283.333 M98.000 294.083 C 98.498 294.587,98.943 295.000,98.989 295.000 C 99.034 295.000,98.665 294.587,98.167 294.083 C 97.669 293.579,97.224 293.167,97.178 293.167 C 97.132 293.167,97.502 293.579,98.000 294.083 M89.500 295.219 C 89.500 295.248,89.744 295.491,90.042 295.760 L 90.583 296.250 90.094 295.708 C 89.638 295.203,89.500 295.090,89.500 295.219 M106.000 302.083 C 106.498 302.587,106.943 303.000,106.989 303.000 C 107.034 303.000,106.665 302.587,106.167 302.083 C 105.669 301.579,105.224 301.167,105.178 301.167 C 105.132 301.167,105.502 301.579,106.000 302.083 M104.000 309.719 C 104.000 309.748,104.244 309.991,104.542 310.260 L 105.083 310.750 104.594 310.208 C 104.138 309.703,104.000 309.590,104.000 309.719 M71.499 312.625 C 71.718 312.923,71.922 313.167,71.954 313.167 C 72.080 313.167,71.667 312.542,71.394 312.320 C 71.214 312.173,71.254 312.290,71.499 312.625 M328.073 313.042 L 327.583 313.583 328.125 313.094 C 328.630 312.638,328.743 312.500,328.615 312.500 C 328.586 312.500,328.342 312.744,328.073 313.042 M323.747 317.708 L 322.250 319.250 323.792 317.753 C 324.640 316.930,325.333 316.237,325.333 316.212 C 325.333 316.091,325.136 316.276,323.747 317.708 M79.250 320.833 C 81.082 322.667,82.618 324.167,82.664 324.167 C 82.709 324.167,81.248 322.667,79.417 320.833 C 77.585 319.000,76.049 317.500,76.003 317.500 C 75.957 317.500,77.418 319.000,79.250 320.833 M317.580 323.875 L 316.083 325.417 317.625 323.920 C 319.057 322.530,319.243 322.333,319.122 322.333 C 319.097 322.333,318.403 323.027,317.580 323.875 M312.906 328.208 L 312.417 328.750 312.958 328.260 C 313.463 327.804,313.577 327.667,313.448 327.667 C 313.419 327.667,313.175 327.910,312.906 328.208 M180.042 344.615 C 180.202 344.657,180.465 344.657,180.625 344.615 C 180.785 344.573,180.654 344.539,180.333 344.539 C 180.012 344.539,179.881 344.573,180.042 344.615 M184.208 345.115 C 184.369 345.157,184.631 345.157,184.792 345.115 C 184.952 345.073,184.821 345.039,184.500 345.039 C 184.179 345.039,184.048 345.073,184.208 345.115 M187.628 345.454 C 187.928 345.491,188.378 345.490,188.628 345.452 C 188.878 345.414,188.633 345.384,188.083 345.385 C 187.533 345.386,187.328 345.417,187.628 345.454 M211.542 345.453 C 211.794 345.491,212.206 345.491,212.458 345.453 C 212.710 345.415,212.504 345.383,212.000 345.383 C 211.496 345.383,211.290 345.415,211.542 345.453 M197.719 345.958 C 199.076 345.986,201.251 345.986,202.552 345.958 C 203.853 345.930,202.742 345.907,200.083 345.907 C 197.425 345.907,196.361 345.930,197.719 345.958 M181.542 369.948 C 181.702 369.990,181.965 369.990,182.125 369.948 C 182.285 369.906,182.154 369.872,181.833 369.872 C 181.512 369.872,181.381 369.906,181.542 369.948 M217.875 369.948 C 218.035 369.990,218.298 369.990,218.458 369.948 C 218.619 369.906,218.487 369.872,218.167 369.872 C 217.846 369.872,217.715 369.906,217.875 369.948 M186.877 370.453 C 187.131 370.491,187.506 370.490,187.711 370.451 C 187.916 370.411,187.708 370.380,187.250 370.381 C 186.792 370.382,186.624 370.415,186.877 370.453 M212.375 370.453 C 212.627 370.491,213.040 370.491,213.292 370.453 C 213.544 370.415,213.338 370.383,212.833 370.383 C 212.329 370.383,212.123 370.415,212.375 370.453 M192.297 370.790 C 192.782 370.824,193.532 370.823,193.964 370.789 C 194.396 370.755,194.000 370.727,193.083 370.728 C 192.167 370.728,191.813 370.756,192.297 370.790 M206.131 370.790 C 206.615 370.824,207.365 370.823,207.797 370.789 C 208.230 370.755,207.833 370.727,206.917 370.728 C 206.000 370.728,205.646 370.756,206.131 370.790 " stroke="none" fill="#408480" fill-rule="evenodd"></path><path id="path4" d="M189.042 29.619 C 189.294 29.658,189.706 29.658,189.958 29.619 C 190.210 29.581,190.004 29.550,189.500 29.550 C 188.996 29.550,188.790 29.581,189.042 29.619 M210.128 29.621 C 210.428 29.658,210.878 29.657,211.128 29.619 C 211.378 29.581,211.133 29.551,210.583 29.552 C 210.033 29.553,209.828 29.584,210.128 29.621 M61.552 190.917 C 61.553 191.467,61.584 191.672,61.621 191.372 C 61.658 191.072,61.657 190.622,61.619 190.372 C 61.581 190.122,61.551 190.367,61.552 190.917 M61.548 209.250 C 61.549 209.708,61.581 209.876,61.620 209.623 C 61.658 209.369,61.657 208.994,61.617 208.789 C 61.578 208.584,61.546 208.792,61.548 209.250 M221.042 369.615 C 221.202 369.657,221.465 369.657,221.625 369.615 C 221.785 369.573,221.654 369.539,221.333 369.539 C 221.012 369.539,220.881 369.573,221.042 369.615 " stroke="none" fill="#400484" fill-rule="evenodd"></path></g></svg>